<svg xmlns="http://www.w3.org/2000/svg" xmlns:xlink="http://www.w3.org/1999/xlink"  viewBox="0 0 375 374.999991" version="1.0"><defs><g/></defs><g fill="#db4a2b" fill-opacity="1"><g transform="translate(-0.131972, 262.262259)"><g><path d="M 44.261719 0 C 44.261719 -0.21875 44.261719 -0.652344 44.261719 -1.089844 C 44.261719 -2.179688 44.261719 -3.269531 44.261719 -4.359375 C 44.261719 -5.449219 44.261719 -6.324219 44.261719 -7.414062 C 44.480469 -10.03125 44.480469 -12.648438 44.480469 -15.261719 C 44.480469 -19.84375 44.480469 -24.421875 44.480469 -29 C 44.261719 -32.707031 44.261719 -36.632812 44.261719 -40.339844 C 44.261719 -42.300781 44.261719 -44.046875 44.480469 -45.789062 C 44.480469 -47.753906 44.480469 -49.714844 44.480469 -51.675781 C 44.480469 -54.511719 44.480469 -57.347656 44.480469 -60.179688 C 44.480469 -61.488281 44.261719 -63.015625 44.261719 -64.324219 C 44.261719 -68.25 44.261719 -72.390625 44.480469 -76.316406 C 44.480469 -77.625 44.480469 -79.152344 44.480469 -80.675781 C 44.480469 -83.074219 44.480469 -85.253906 44.261719 -87.871094 C 44.261719 -88.746094 44.261719 -89.835938 44.261719 -90.925781 C 44.261719 -92.453125 44.261719 -93.976562 44.480469 -95.503906 C 44.480469 -96.59375 44.480469 -97.683594 44.480469 -98.773438 C 44.480469 -103.136719 44.699219 -107.714844 44.480469 -112.074219 C 44.480469 -114.691406 44.480469 -117.308594 44.480469 -119.925781 C 44.261719 -120.796875 44.261719 -121.453125 44.261719 -122.324219 C 44.261719 -124.503906 44.480469 -126.683594 44.261719 -128.863281 C 44.261719 -129.738281 44.261719 -130.390625 44.261719 -131.046875 C 44.261719 -132.136719 44.261719 -133.226562 44.261719 -134.535156 C 44.261719 -135.625 44.261719 -136.714844 44.261719 -137.804688 C 44.261719 -137.804688 44.261719 -138.023438 44.261719 -138.023438 C 44.480469 -138.894531 44.480469 -139.765625 44.480469 -140.421875 C 44.480469 -144.347656 44.480469 -148.269531 44.480469 -151.976562 C 44.480469 -152.195312 44.480469 -152.195312 44.480469 -152.414062 C 43.390625 -152.414062 42.082031 -152.414062 40.773438 -152.414062 C 39.683594 -152.414062 38.375 -152.414062 37.285156 -152.414062 C 35.976562 -152.195312 34.453125 -152.414062 33.144531 -152.195312 C 32.925781 -152.195312 32.925781 -152.195312 32.707031 -152.195312 C 32.707031 -148.925781 32.707031 -146.089844 32.488281 -143.039062 C 32.488281 -141.730469 32.488281 -140.421875 32.488281 -139.332031 C 32.488281 -133.445312 32.707031 -127.773438 32.488281 -121.886719 C 32.488281 -119.054688 32.488281 -116 32.488281 -112.949219 C 32.707031 -110.765625 32.488281 -108.585938 32.707031 -106.40625 C 32.707031 -105.097656 32.707031 -104.007812 32.707031 -102.699219 C 32.707031 -100.082031 32.707031 -97.25 32.488281 -94.632812 C 32.488281 -93.105469 32.488281 -91.578125 32.488281 -90.054688 C 32.488281 -86.5625 32.269531 -83.074219 32.488281 -79.585938 C 32.488281 -75.007812 32.707031 -70.429688 32.488281 -65.851562 C 32.488281 -65.414062 32.488281 -64.757812 32.488281 -64.324219 C 32.488281 -64.105469 32.488281 -63.667969 32.488281 -63.234375 C 32.269531 -63.667969 32.269531 -63.886719 32.269531 -64.105469 C 32.269531 -64.542969 32.050781 -65.195312 32.050781 -65.632812 C 32.050781 -66.285156 31.835938 -66.722656 31.835938 -67.375 C 31.617188 -67.8125 31.617188 -68.25 31.617188 -68.902344 C 31.617188 -69.339844 31.398438 -69.992188 31.398438 -70.429688 C 31.179688 -71.082031 31.179688 -71.519531 31.179688 -72.171875 C 30.960938 -72.828125 30.960938 -73.480469 30.746094 -74.136719 C 30.746094 -74.570312 30.746094 -75.226562 30.746094 -75.878906 C 30.527344 -76.316406 30.527344 -76.96875 30.308594 -77.40625 C 30.308594 -78.058594 30.308594 -78.496094 30.089844 -78.933594 C 30.089844 -79.585938 30.089844 -80.023438 29.871094 -80.675781 C 29.871094 -81.332031 29.652344 -81.984375 29.652344 -82.855469 C 29.4375 -83.511719 29.4375 -84.164062 29.21875 -85.039062 C 29.21875 -85.691406 29 -86.5625 29 -87.21875 C 28.78125 -87.65625 28.78125 -88.089844 28.78125 -88.746094 C 28.5625 -89.179688 28.5625 -89.617188 28.5625 -90.054688 C 28.347656 -90.707031 28.347656 -91.144531 28.128906 -91.796875 C 28.128906 -92.453125 28.128906 -93.105469 27.910156 -93.757812 C 27.910156 -94.195312 27.910156 -94.632812 27.910156 -95.066406 C 27.691406 -95.722656 27.691406 -96.375 27.691406 -97.03125 C 27.472656 -97.464844 27.472656 -97.902344 27.472656 -98.339844 C 27.472656 -98.554688 27.472656 -98.554688 27.472656 -98.773438 C 27.472656 -98.992188 27.253906 -99.429688 27.253906 -99.648438 C 27.253906 -100.300781 27.039062 -100.738281 27.039062 -101.390625 C 27.039062 -101.828125 26.820312 -102.480469 26.820312 -102.917969 C 26.820312 -103.570312 26.601562 -104.007812 26.601562 -104.445312 C 26.601562 -105.097656 26.382812 -105.535156 26.382812 -106.1875 C 26.164062 -106.84375 26.164062 -107.496094 25.949219 -108.367188 C 25.949219 -109.023438 25.730469 -109.675781 25.730469 -110.550781 C 25.511719 -111.421875 25.511719 -112.292969 25.292969 -113.164062 C 25.292969 -113.820312 25.074219 -114.472656 24.855469 -115.347656 C 24.855469 -116 24.855469 -116.871094 24.640625 -117.527344 C 24.640625 -118.179688 24.421875 -119.054688 24.203125 -119.707031 C 24.203125 -120.359375 24.203125 -120.796875 23.984375 -121.453125 C 23.984375 -121.886719 23.984375 -122.324219 23.765625 -122.757812 C 23.765625 -123.195312 23.765625 -123.632812 23.550781 -124.285156 C 23.550781 -124.722656 23.550781 -125.375 23.332031 -125.8125 C 23.332031 -126.464844 23.113281 -126.902344 23.113281 -127.558594 C 23.113281 -127.992188 22.894531 -128.429688 22.894531 -128.863281 C 22.894531 -129.300781 22.894531 -129.738281 22.675781 -130.171875 C 22.675781 -131.046875 22.457031 -131.699219 22.457031 -132.570312 C 22.242188 -133.007812 22.242188 -133.660156 22.242188 -134.097656 C 22.023438 -134.753906 22.023438 -135.1875 22.023438 -135.84375 C 21.804688 -136.277344 21.804688 -136.714844 21.804688 -137.152344 C 21.804688 -137.804688 21.585938 -138.675781 21.585938 -139.332031 C 21.585938 -139.984375 21.367188 -140.640625 21.367188 -141.292969 C 21.152344 -141.730469 21.152344 -142.382812 21.152344 -143.039062 C 20.933594 -143.472656 20.933594 -144.128906 20.933594 -144.5625 C 20.714844 -145 20.714844 -145.65625 20.714844 -146.089844 C 20.496094 -146.960938 20.496094 -147.617188 20.277344 -148.488281 C 20.277344 -149.144531 20.058594 -150.015625 20.058594 -150.667969 C 19.84375 -151.105469 19.84375 -151.542969 19.84375 -151.976562 C 19.625 -152.195312 19.40625 -152.195312 19.1875 -152.195312 C 18.097656 -152.195312 16.789062 -152.195312 15.699219 -152.195312 C 14.828125 -151.976562 13.953125 -151.976562 13.082031 -151.976562 C 11.554688 -151.976562 9.8125 -151.976562 8.285156 -151.976562 C 8.066406 -151.976562 8.066406 -151.976562 7.851562 -151.976562 C 7.851562 -151.757812 7.851562 -151.542969 7.851562 -151.542969 C 7.851562 -150.667969 7.851562 -150.015625 7.851562 -149.359375 C 7.851562 -149.144531 7.851562 -148.925781 7.851562 -148.707031 C 7.851562 -147.617188 7.851562 -146.746094 7.632812 -145.65625 C 7.632812 -145 7.851562 -144.347656 7.851562 -143.691406 C 7.851562 -141.511719 7.851562 -139.113281 7.851562 -136.714844 C 7.632812 -132.355469 7.632812 -127.773438 7.851562 -123.195312 C 7.851562 -119.269531 7.851562 -115.5625 7.851562 -111.640625 C 7.851562 -109.894531 7.851562 -108.152344 7.632812 -106.40625 C 7.632812 -104.445312 7.632812 -102.480469 7.632812 -100.519531 C 7.632812 -97.683594 7.632812 -94.851562 7.632812 -92.015625 C 7.632812 -90.707031 7.851562 -89.398438 7.851562 -88.308594 C 7.851562 -84.820312 7.851562 -81.332031 7.632812 -77.84375 C 7.632812 -75.878906 7.632812 -73.917969 7.632812 -71.953125 C 7.632812 -69.339844 7.632812 -66.941406 7.851562 -64.324219 C 7.851562 -63.234375 7.851562 -62.144531 7.851562 -61.054688 C 7.851562 -59.527344 7.851562 -58.21875 7.851562 -56.691406 C 7.632812 -55.601562 7.632812 -54.292969 7.632812 -53.203125 C 7.632812 -48.84375 7.632812 -44.480469 7.632812 -40.121094 C 7.851562 -37.503906 7.632812 -34.886719 7.851562 -32.269531 C 7.851562 -31.398438 7.851562 -30.746094 7.851562 -29.871094 C 7.851562 -27.691406 7.851562 -25.511719 7.851562 -23.113281 C 7.851562 -22.242188 7.851562 -21.367188 7.851562 -20.714844 C 7.851562 -18.535156 7.851562 -16.351562 7.851562 -14.390625 C 7.851562 -14.171875 7.851562 -14.171875 7.851562 -13.953125 C 7.632812 -13.300781 7.632812 -12.648438 7.632812 -11.773438 C 7.632812 -7.851562 7.632812 -3.925781 7.632812 0 C 7.632812 0 7.632812 0.21875 7.632812 0.21875 C 7.632812 0.21875 7.632812 0.21875 7.851562 0.21875 C 8.941406 0.21875 10.25 0.21875 11.339844 0.21875 C 12.648438 0.4375 13.738281 0.4375 14.828125 0.21875 C 16.351562 0.21875 17.660156 0.21875 19.1875 0.21875 C 19.1875 0.21875 19.40625 0.21875 19.40625 0.21875 C 19.625 -3.050781 19.625 -6.105469 19.625 -9.15625 C 19.625 -10.683594 19.625 -12.210938 19.625 -13.738281 C 19.625 -19.1875 19.625 -24.640625 19.625 -30.089844 C 19.625 -33.144531 19.625 -36.195312 19.625 -39.25 C 19.625 -41.210938 19.625 -43.171875 19.625 -44.917969 C 19.40625 -46.878906 19.625 -48.625 19.625 -50.585938 C 19.625 -52.984375 19.40625 -55.164062 19.625 -57.5625 C 19.625 -58.871094 19.625 -60.398438 19.625 -61.925781 C 19.625 -65.195312 19.625 -68.683594 19.625 -72.171875 C 19.625 -76.316406 19.625 -80.675781 19.625 -85.039062 C 19.625 -85.253906 19.625 -85.472656 19.625 -85.691406 C 19.625 -85.472656 19.84375 -85.472656 19.84375 -85.253906 C 19.84375 -84.601562 20.058594 -83.730469 20.058594 -83.074219 C 20.277344 -81.984375 20.277344 -81.113281 20.496094 -80.023438 C 20.714844 -79.152344 20.933594 -78.277344 20.933594 -77.40625 C 21.152344 -76.96875 21.152344 -76.535156 21.152344 -75.878906 C 21.152344 -75.445312 21.367188 -75.007812 21.367188 -74.355469 C 21.585938 -73.917969 21.585938 -73.261719 21.585938 -72.828125 C 21.804688 -72.390625 21.804688 -71.738281 21.804688 -71.300781 C 22.023438 -70.429688 22.023438 -69.773438 22.242188 -68.902344 C 22.242188 -68.464844 22.242188 -67.8125 22.457031 -67.375 C 22.457031 -66.722656 22.675781 -65.851562 22.675781 -65.195312 C 22.675781 -64.757812 22.675781 -64.542969 22.894531 -64.105469 C 22.894531 -63.667969 22.894531 -63.015625 23.113281 -62.578125 C 23.113281 -62.144531 23.113281 -61.925781 23.113281 -61.707031 C 23.332031 -61.054688 23.332031 -60.617188 23.332031 -59.960938 C 23.550781 -59.308594 23.550781 -58.871094 23.765625 -58.21875 C 23.765625 -57.78125 23.765625 -57.5625 23.765625 -57.128906 C 23.984375 -56.472656 23.984375 -56.039062 24.203125 -55.382812 C 24.203125 -54.949219 24.421875 -54.292969 24.421875 -53.855469 C 24.421875 -53.421875 24.640625 -52.765625 24.640625 -52.332031 C 24.640625 -51.675781 24.855469 -51.242188 24.855469 -50.585938 C 24.855469 -50.152344 25.074219 -49.714844 25.074219 -49.058594 C 25.074219 -48.40625 25.292969 -47.96875 25.292969 -47.316406 C 25.511719 -47.097656 25.511719 -46.660156 25.511719 -46.226562 C 25.511719 -45.570312 25.511719 -45.136719 25.730469 -44.480469 C 25.730469 -44.046875 25.949219 -43.390625 25.949219 -42.953125 C 25.949219 -42.300781 26.164062 -41.648438 26.164062 -41.210938 C 26.164062 -40.554688 26.164062 -40.121094 26.382812 -39.902344 C 26.382812 -39.25 26.382812 -38.8125 26.601562 -38.375 C 26.601562 -37.722656 26.601562 -37.066406 26.820312 -36.632812 C 26.820312 -35.976562 26.820312 -35.542969 27.039062 -34.886719 C 27.039062 -34.453125 27.039062 -33.796875 27.253906 -33.359375 C 27.253906 -32.707031 27.472656 -32.050781 27.472656 -31.398438 C 27.472656 -30.746094 27.691406 -30.308594 27.691406 -29.652344 C 27.691406 -29.21875 27.910156 -28.5625 27.910156 -28.128906 C 27.910156 -27.472656 28.128906 -27.039062 28.128906 -26.601562 C 28.128906 -25.949219 28.347656 -25.292969 28.347656 -24.855469 C 28.5625 -24.203125 28.5625 -23.550781 28.5625 -23.113281 C 28.5625 -22.675781 28.78125 -22.242188 28.78125 -21.804688 C 28.78125 -21.585938 28.78125 -21.152344 28.78125 -20.714844 C 29 -20.058594 29 -19.40625 29.21875 -18.75 C 29.4375 -17.878906 29.4375 -17.007812 29.652344 -16.136719 C 29.652344 -15.480469 29.871094 -14.828125 29.871094 -14.171875 C 30.089844 -13.300781 30.089844 -12.648438 30.308594 -11.773438 C 30.308594 -11.339844 30.527344 -10.902344 30.527344 -10.683594 C 30.527344 -9.8125 30.746094 -9.15625 30.746094 -8.503906 C 30.960938 -7.632812 31.179688 -6.757812 31.179688 -6.105469 C 31.398438 -5.234375 31.617188 -4.359375 31.617188 -3.488281 C 31.835938 -2.398438 32.050781 -1.527344 32.050781 -0.4375 C 32.050781 -0.21875 32.269531 0 32.269531 0.21875 C 32.925781 0.21875 33.578125 0.4375 34.015625 0.21875 C 34.886719 0.21875 35.542969 0.21875 36.414062 0.21875 C 37.941406 0.21875 39.25 0 40.773438 0.21875 C 41.648438 0.21875 42.300781 0.21875 43.171875 0.21875 C 43.609375 0.21875 43.828125 0.21875 44.261719 0 Z M 44.261719 0 "/></g></g></g><g fill="#db4a2b" fill-opacity="1"><g transform="translate(40.858178, 262.262259)"><g><path d="M 7.851562 -152.414062 C 7.851562 -152.414062 7.851562 -152.195312 7.851562 -152.195312 C 7.851562 -150.886719 7.851562 -149.359375 7.851562 -147.835938 C 7.632812 -146.960938 7.851562 -145.871094 7.632812 -144.78125 C 7.632812 -143.910156 7.632812 -143.039062 7.851562 -142.164062 C 7.851562 -141.949219 7.851562 -141.730469 7.851562 -141.511719 C 7.851562 -140.859375 7.632812 -140.203125 7.632812 -139.550781 C 7.632812 -139.113281 7.851562 -138.675781 7.632812 -138.457031 C 7.632812 -138.457031 7.632812 -138.242188 7.632812 -138.242188 C 7.851562 -137.585938 7.851562 -136.714844 7.851562 -136.058594 C 7.851562 -135.84375 7.851562 -135.84375 7.851562 -135.625 C 7.851562 -134.96875 7.851562 -134.316406 8.066406 -133.660156 C 8.066406 -132.789062 8.066406 -131.917969 8.066406 -131.046875 C 8.066406 -130.828125 8.066406 -130.828125 8.066406 -130.828125 C 8.066406 -130.171875 8.285156 -129.738281 8.285156 -129.082031 C 8.285156 -128.210938 8.285156 -127.558594 8.285156 -126.683594 C 8.285156 -125.59375 8.285156 -124.722656 8.285156 -123.632812 C 8.066406 -122.542969 8.066406 -121.234375 8.066406 -119.925781 C 8.066406 -117.527344 8.066406 -115.347656 8.066406 -112.949219 C 8.285156 -111.203125 8.285156 -109.457031 8.285156 -107.496094 C 8.285156 -102.917969 8.285156 -98.339844 8.285156 -93.757812 C 8.285156 -91.796875 8.285156 -89.835938 8.285156 -87.871094 C 8.285156 -84.382812 8.285156 -80.894531 8.285156 -77.40625 C 8.285156 -73.699219 8.285156 -69.773438 8.285156 -66.066406 C 8.066406 -64.324219 8.285156 -62.796875 8.066406 -61.269531 C 8.066406 -60.617188 8.066406 -59.960938 8.066406 -59.308594 C 8.066406 -58.871094 8.066406 -58.652344 8.066406 -58.21875 C 8.066406 -57.5625 7.851562 -56.910156 7.851562 -56.253906 C 7.851562 -55.382812 7.851562 -54.511719 7.851562 -53.640625 C 7.632812 -51.675781 7.851562 -49.933594 7.632812 -47.96875 C 7.632812 -44.917969 7.632812 -41.863281 7.632812 -39.03125 C 7.632812 -35.324219 7.632812 -31.835938 7.851562 -28.347656 C 7.851562 -27.472656 7.851562 -26.820312 7.851562 -25.949219 C 7.851562 -24.421875 7.851562 -23.113281 8.066406 -21.804688 C 8.066406 -20.714844 8.066406 -19.625 8.066406 -18.535156 C 8.066406 -17.445312 8.066406 -16.570312 8.066406 -15.699219 C 8.285156 -14.390625 8.066406 -13.082031 8.285156 -11.773438 C 8.285156 -10.683594 8.285156 -9.375 8.285156 -8.066406 C 8.285156 -6.542969 8.285156 -4.796875 8.285156 -3.269531 C 8.066406 -2.398438 8.066406 -1.746094 8.285156 -1.089844 C 8.285156 -0.4375 8.285156 0 8.285156 0.4375 C 8.941406 0.4375 9.8125 0.4375 10.464844 0.4375 C 10.683594 0.4375 10.902344 0.4375 11.339844 0.4375 C 11.773438 0.21875 12.210938 0.21875 12.863281 0.4375 C 13.519531 0.4375 14.390625 0.4375 15.046875 0.4375 C 15.261719 0.21875 15.480469 0.4375 15.699219 0.4375 C 16.136719 0.4375 16.351562 0.4375 16.570312 0.4375 C 17.226562 0.4375 17.660156 0.21875 18.316406 0.21875 C 19.625 0.21875 20.714844 0.21875 22.023438 0.21875 C 25.292969 0.21875 28.347656 0.21875 31.617188 0.21875 C 31.835938 0.21875 32.050781 0.21875 32.050781 0.21875 C 32.050781 -0.21875 32.050781 -0.652344 32.050781 -1.089844 C 32.050781 -2.617188 32.050781 -3.925781 32.050781 -5.449219 C 32.269531 -7.632812 32.050781 -9.59375 32.050781 -11.773438 C 32.050781 -12.210938 32.050781 -12.429688 32.050781 -12.648438 C 30.960938 -12.863281 30.089844 -12.863281 29 -12.863281 C 26.164062 -12.863281 23.332031 -12.863281 20.496094 -12.863281 C 20.496094 -12.863281 20.277344 -12.863281 20.277344 -12.863281 C 20.058594 -13.738281 20.058594 -14.609375 20.058594 -15.480469 C 20.058594 -17.660156 20.058594 -20.058594 20.058594 -22.242188 C 20.058594 -23.765625 20.058594 -25.292969 20.058594 -26.820312 C 19.84375 -27.472656 19.84375 -28.128906 19.84375 -29 C 19.84375 -31.398438 19.84375 -33.796875 19.84375 -36.414062 C 19.84375 -36.414062 19.84375 -36.632812 19.84375 -36.851562 C 20.058594 -37.285156 20.058594 -37.503906 20.058594 -37.941406 C 20.058594 -38.59375 20.058594 -39.25 20.058594 -39.902344 C 20.058594 -40.554688 20.277344 -41.210938 20.277344 -42.082031 C 20.277344 -43.390625 20.277344 -44.699219 20.277344 -46.007812 C 20.277344 -46.445312 20.277344 -46.878906 20.277344 -47.316406 C 20.277344 -54.511719 20.277344 -61.925781 20.277344 -69.121094 C 20.277344 -69.339844 20.277344 -69.554688 20.277344 -69.773438 C 21.367188 -69.773438 22.242188 -69.773438 23.113281 -69.773438 C 24.203125 -69.992188 25.074219 -69.773438 25.949219 -69.773438 C 27.039062 -69.773438 27.910156 -69.773438 28.78125 -69.773438 C 29.871094 -69.773438 30.746094 -69.773438 31.617188 -69.773438 C 31.617188 -69.992188 31.617188 -69.992188 31.617188 -69.992188 C 31.835938 -71.300781 31.835938 -72.609375 31.835938 -73.699219 C 31.835938 -76.097656 31.835938 -78.714844 31.835938 -81.113281 C 31.835938 -81.550781 31.835938 -81.984375 32.050781 -82.421875 C 32.050781 -82.421875 31.835938 -82.640625 31.835938 -82.640625 C 30.089844 -82.640625 28.5625 -82.640625 27.039062 -82.855469 C 25.074219 -82.855469 23.113281 -82.855469 20.933594 -82.855469 C 20.933594 -82.855469 20.714844 -82.855469 20.714844 -82.855469 C 20.714844 -83.292969 20.714844 -83.949219 20.714844 -84.382812 C 20.714844 -84.601562 20.714844 -85.039062 20.714844 -85.253906 C 20.714844 -86.347656 20.714844 -87.21875 20.714844 -88.308594 C 20.496094 -89.179688 20.714844 -90.054688 20.496094 -90.925781 C 20.496094 -92.015625 20.496094 -93.105469 20.496094 -94.195312 C 20.277344 -95.941406 20.496094 -97.683594 20.277344 -99.648438 C 20.277344 -101.171875 20.277344 -102.917969 20.277344 -104.445312 C 20.277344 -106.625 20.277344 -108.804688 20.277344 -110.984375 C 20.058594 -114.257812 20.058594 -117.527344 20.277344 -121.015625 C 20.277344 -123.851562 20.277344 -126.683594 20.277344 -129.519531 C 20.277344 -130.609375 20.277344 -131.480469 20.277344 -132.570312 C 20.058594 -133.878906 20.277344 -134.96875 20.058594 -136.058594 C 20.058594 -136.496094 20.058594 -136.933594 20.058594 -137.367188 C 20.058594 -137.585938 20.058594 -138.023438 20.058594 -138.457031 C 20.058594 -138.675781 20.058594 -139.113281 20.058594 -139.550781 C 20.058594 -139.550781 20.058594 -139.550781 20.277344 -139.550781 C 21.152344 -139.550781 22.023438 -139.765625 23.113281 -139.765625 C 23.984375 -139.765625 25.074219 -139.984375 26.164062 -139.984375 C 27.253906 -139.984375 28.347656 -139.984375 29.4375 -139.984375 C 30.089844 -140.203125 30.746094 -139.984375 31.398438 -139.984375 C 31.617188 -139.984375 31.835938 -139.984375 31.835938 -139.984375 C 31.835938 -140.203125 32.050781 -140.421875 32.050781 -140.640625 C 32.050781 -141.949219 31.835938 -143.257812 31.835938 -144.78125 C 31.835938 -147.179688 31.835938 -149.796875 31.835938 -152.414062 C 31.835938 -152.414062 31.835938 -152.632812 31.835938 -152.632812 C 31.835938 -152.632812 31.835938 -152.632812 31.617188 -152.632812 C 29.21875 -152.632812 27.039062 -152.851562 24.640625 -152.851562 C 23.984375 -152.851562 23.550781 -152.851562 23.113281 -152.851562 C 20.277344 -152.851562 17.660156 -152.851562 15.046875 -152.632812 C 14.171875 -152.632812 13.519531 -152.632812 12.648438 -152.414062 C 11.992188 -152.414062 11.121094 -152.414062 10.464844 -152.632812 C 10.03125 -152.632812 9.8125 -152.632812 9.375 -152.414062 C 8.941406 -152.414062 8.503906 -152.414062 7.851562 -152.414062 Z M 7.851562 -152.414062 "/></g></g></g><g fill="#db4a2b" fill-opacity="1"><g transform="translate(69.420308, 262.262259)"><g><path d="M 7.851562 0.4375 C 8.285156 0.4375 8.722656 0.4375 8.941406 0.4375 C 9.59375 0.4375 10.03125 0.4375 10.683594 0.4375 C 13.738281 0.4375 17.007812 0.4375 20.277344 0.4375 C 23.984375 0.4375 27.691406 0.4375 31.398438 0.4375 C 31.398438 0.4375 31.617188 0.4375 31.617188 0.4375 C 31.617188 0.21875 31.617188 0.21875 31.617188 0.21875 C 31.617188 -3.269531 31.617188 -6.976562 31.617188 -10.464844 C 31.617188 -11.121094 31.617188 -11.554688 31.617188 -12.210938 C 31.398438 -12.210938 31.398438 -12.210938 31.398438 -12.210938 C 30.089844 -12.210938 29 -12.429688 27.910156 -12.429688 C 27.253906 -12.429688 26.820312 -12.429688 26.164062 -12.429688 C 26.164062 -12.429688 25.949219 -12.429688 25.730469 -12.429688 C 25.292969 -12.429688 24.855469 -12.429688 24.203125 -12.429688 C 23.984375 -12.429688 23.984375 -12.429688 23.765625 -12.429688 C 23.550781 -12.429688 23.332031 -12.429688 23.113281 -12.429688 C 22.894531 -12.429688 22.675781 -12.210938 22.457031 -12.429688 C 22.023438 -12.429688 21.804688 -12.429688 21.367188 -12.429688 C 20.933594 -12.429688 20.496094 -12.429688 20.058594 -12.429688 C 20.058594 -12.429688 19.84375 -12.429688 19.84375 -12.429688 C 19.84375 -12.648438 19.84375 -12.648438 19.84375 -12.648438 C 19.84375 -13.082031 19.84375 -13.300781 19.84375 -13.738281 C 19.84375 -14.609375 19.84375 -15.480469 19.84375 -16.351562 C 19.84375 -17.878906 19.84375 -19.40625 19.84375 -20.933594 C 19.84375 -22.242188 19.84375 -23.550781 19.84375 -24.855469 C 19.84375 -27.253906 19.84375 -29.652344 19.84375 -32.050781 C 19.625 -35.324219 19.84375 -38.375 19.625 -41.648438 C 19.625 -43.390625 19.625 -45.351562 19.625 -47.097656 C 19.625 -49.277344 19.625 -51.457031 19.625 -53.640625 C 19.625 -54.511719 19.625 -55.601562 19.625 -56.472656 C 19.625 -57.5625 19.625 -58.652344 19.625 -59.746094 C 19.84375 -61.707031 19.84375 -63.453125 19.625 -65.414062 C 19.625 -66.066406 19.625 -66.503906 19.625 -67.15625 C 19.625 -71.738281 19.625 -76.316406 19.625 -80.894531 C 19.84375 -81.550781 19.84375 -81.984375 19.625 -82.640625 C 19.625 -85.691406 19.84375 -88.746094 19.625 -91.796875 C 19.625 -93.105469 19.625 -94.632812 19.625 -95.941406 C 19.625 -97.464844 19.625 -98.773438 19.625 -100.300781 C 19.625 -102.917969 19.40625 -105.316406 19.625 -107.933594 C 19.625 -109.675781 19.625 -111.640625 19.625 -113.601562 C 19.84375 -116.65625 19.84375 -119.488281 19.625 -122.542969 C 19.625 -123.851562 19.625 -125.15625 19.625 -126.464844 C 19.625 -132.136719 19.625 -138.023438 19.625 -143.691406 C 19.625 -146.089844 19.625 -148.488281 19.625 -150.886719 C 19.625 -151.324219 19.40625 -151.757812 19.40625 -152.195312 C 19.1875 -152.195312 18.96875 -152.414062 18.535156 -152.414062 C 18.097656 -152.414062 17.660156 -152.414062 17.226562 -152.414062 C 17.007812 -152.414062 17.007812 -152.414062 17.007812 -152.414062 C 16.570312 -152.414062 16.351562 -152.414062 15.917969 -152.414062 C 14.171875 -152.414062 12.648438 -152.414062 10.902344 -152.414062 C 10.03125 -152.414062 9.15625 -152.414062 8.066406 -152.414062 C 7.851562 -152.414062 7.851562 -152.414062 7.632812 -152.195312 C 7.632812 -152.195312 7.632812 -151.976562 7.632812 -151.976562 C 7.632812 -150.234375 7.632812 -148.707031 7.632812 -147.179688 C 7.632812 -144.128906 7.632812 -140.859375 7.851562 -137.804688 C 7.851562 -136.277344 7.851562 -134.753906 7.851562 -133.445312 C 7.851562 -131.480469 7.851562 -129.300781 7.851562 -127.339844 C 7.851562 -124.503906 7.851562 -121.667969 7.851562 -118.835938 C 7.632812 -116.21875 7.851562 -113.382812 7.632812 -110.550781 C 7.632812 -109.023438 7.632812 -107.496094 7.632812 -105.96875 C 7.632812 -102.480469 7.632812 -98.992188 7.851562 -95.503906 C 7.851562 -95.285156 7.851562 -95.285156 7.851562 -95.066406 C 7.851562 -94.195312 7.851562 -93.105469 7.851562 -92.234375 C 7.851562 -91.359375 7.851562 -90.707031 7.851562 -89.835938 C 7.851562 -88.089844 7.851562 -86.5625 7.851562 -84.820312 C 7.851562 -80.894531 7.851562 -76.96875 7.851562 -73.046875 C 7.851562 -69.339844 7.851562 -65.632812 7.851562 -61.707031 C 7.851562 -60.835938 7.851562 -59.746094 7.851562 -58.652344 C 7.851562 -53.855469 7.632812 -49.058594 7.851562 -44.261719 C 7.851562 -42.953125 7.851562 -41.648438 7.851562 -40.339844 C 7.851562 -35.976562 7.851562 -31.398438 7.851562 -26.820312 C 7.632812 -21.585938 7.851562 -16.136719 7.851562 -10.902344 C 7.851562 -7.632812 7.851562 -4.359375 7.851562 -0.871094 C 7.851562 -0.4375 7.851562 0 7.851562 0.4375 Z M 7.851562 0.4375 "/></g></g></g><g fill="#db4a2b" fill-opacity="1"><g transform="translate(97.328326, 262.262259)"><g><path d="M 30.089844 -50.804688 C 30.308594 -50.367188 30.308594 -49.933594 30.308594 -49.714844 C 30.308594 -48.84375 30.308594 -47.96875 30.527344 -47.097656 C 30.527344 -46.878906 30.527344 -46.878906 30.527344 -46.660156 C 30.527344 -45.789062 30.527344 -44.699219 30.746094 -43.828125 C 30.746094 -43.171875 30.746094 -42.738281 30.746094 -42.082031 C 30.746094 -42.082031 30.746094 -42.082031 30.746094 -41.863281 C 30.746094 -41.429688 30.960938 -40.773438 30.960938 -40.121094 C 30.960938 -40.121094 30.960938 -39.902344 30.960938 -39.902344 C 30.960938 -39.03125 30.960938 -38.15625 31.179688 -37.503906 C 31.179688 -37.066406 31.179688 -36.632812 31.179688 -36.195312 C 31.179688 -35.976562 31.179688 -35.976562 31.179688 -35.757812 C 31.179688 -35.324219 31.179688 -34.886719 31.398438 -34.453125 C 31.398438 -34.015625 31.398438 -33.359375 31.398438 -32.707031 C 31.398438 -32.050781 31.398438 -31.617188 31.398438 -30.960938 C 31.617188 -30.089844 31.617188 -29 31.617188 -28.128906 C 31.617188 -27.472656 31.617188 -26.820312 31.835938 -26.164062 C 31.835938 -25.949219 31.835938 -25.949219 31.835938 -25.730469 C 31.835938 -25.074219 31.835938 -24.421875 31.835938 -23.765625 C 32.050781 -23.332031 32.050781 -22.675781 32.050781 -22.023438 C 32.050781 -20.933594 32.050781 -19.84375 32.050781 -18.75 C 32.269531 -17.226562 32.269531 -15.699219 32.269531 -14.171875 C 32.269531 -13.953125 32.269531 -13.953125 32.269531 -13.953125 C 32.269531 -13.300781 32.269531 -12.863281 32.488281 -12.429688 C 32.488281 -11.773438 32.488281 -11.121094 32.488281 -10.464844 C 32.488281 -10.03125 32.488281 -9.59375 32.707031 -9.375 C 32.707031 -8.722656 32.707031 -8.066406 32.707031 -7.414062 C 32.707031 -7.414062 32.707031 -7.195312 32.707031 -7.195312 C 32.925781 -6.542969 32.925781 -5.667969 32.925781 -5.015625 C 32.925781 -4.359375 32.925781 -3.925781 33.144531 -3.269531 C 33.144531 -2.835938 33.144531 -2.398438 33.144531 -1.960938 C 33.359375 -1.089844 33.578125 -0.4375 33.578125 0.21875 C 33.796875 0.21875 33.796875 0.21875 34.015625 0.21875 C 35.105469 0.21875 36.195312 0.21875 37.285156 0.21875 C 38.15625 0.21875 38.8125 0.21875 39.464844 0.21875 C 40.773438 0.21875 41.863281 0.21875 42.953125 0.21875 C 43.171875 0.21875 43.390625 0.21875 43.828125 0.21875 C 44.261719 0.4375 44.699219 0.21875 45.136719 0.21875 C 45.136719 0.21875 45.351562 0 45.136719 0 C 45.136719 -0.4375 45.136719 -0.652344 45.136719 -1.089844 C 45.136719 -1.527344 45.136719 -1.960938 45.136719 -2.398438 C 44.917969 -2.835938 44.917969 -3.050781 44.917969 -3.269531 C 44.917969 -3.707031 44.699219 -4.359375 44.699219 -4.796875 C 44.699219 -5.449219 44.699219 -6.324219 44.699219 -7.195312 C 44.480469 -8.066406 44.480469 -8.941406 44.480469 -9.8125 C 44.261719 -10.902344 44.261719 -11.992188 44.261719 -12.863281 C 44.261719 -13.519531 44.261719 -13.953125 44.261719 -14.609375 C 44.046875 -15.261719 44.046875 -16.136719 44.046875 -17.007812 C 44.046875 -18.316406 44.046875 -19.84375 44.046875 -21.367188 C 44.046875 -21.367188 44.046875 -21.585938 44.046875 -21.585938 C 44.046875 -22.242188 43.828125 -22.894531 43.828125 -23.550781 C 43.828125 -23.984375 43.828125 -24.203125 43.828125 -24.640625 C 43.609375 -25.511719 43.609375 -26.164062 43.609375 -26.820312 C 43.609375 -27.472656 43.390625 -28.347656 43.390625 -29.21875 C 43.390625 -29.21875 43.390625 -29.21875 43.390625 -29.4375 C 43.390625 -29.652344 43.390625 -30.089844 43.390625 -30.746094 C 43.171875 -31.179688 43.171875 -31.617188 43.171875 -32.050781 C 43.171875 -32.707031 42.953125 -33.578125 42.953125 -34.234375 C 42.953125 -34.886719 42.953125 -35.542969 42.738281 -36.195312 C 42.738281 -36.195312 42.738281 -36.414062 42.738281 -36.632812 C 42.738281 -37.285156 42.738281 -38.15625 42.519531 -39.03125 C 42.519531 -39.683594 42.519531 -40.121094 42.519531 -40.773438 C 42.519531 -40.773438 42.519531 -40.992188 42.519531 -40.992188 C 42.300781 -41.429688 42.300781 -41.863281 42.300781 -42.519531 C 42.300781 -42.738281 42.300781 -43.171875 42.082031 -43.609375 C 42.082031 -44.261719 42.082031 -44.917969 42.082031 -45.570312 C 42.082031 -45.570312 42.082031 -45.570312 42.082031 -45.789062 C 41.863281 -46.445312 41.863281 -47.097656 41.648438 -47.96875 C 41.648438 -48.40625 41.648438 -48.625 41.648438 -49.058594 C 41.648438 -49.714844 41.429688 -50.367188 41.429688 -51.023438 C 41.429688 -51.894531 41.429688 -52.765625 41.429688 -53.640625 C 41.210938 -54.292969 41.210938 -54.730469 41.210938 -55.382812 C 41.210938 -56.039062 41.210938 -56.691406 40.992188 -57.347656 C 40.992188 -58 40.992188 -58.4375 40.992188 -59.089844 C 40.773438 -59.746094 40.773438 -60.398438 40.773438 -61.054688 C 40.773438 -61.707031 40.773438 -62.578125 40.773438 -63.453125 C 40.554688 -64.324219 40.554688 -64.976562 40.554688 -65.851562 C 40.554688 -66.503906 40.554688 -67.375 40.339844 -68.03125 C 40.339844 -69.121094 40.339844 -69.992188 40.339844 -70.863281 C 40.121094 -71.300781 40.339844 -71.738281 40.121094 -72.390625 C 40.121094 -73.046875 40.121094 -73.917969 40.121094 -74.789062 C 39.902344 -75.445312 39.902344 -76.097656 39.902344 -76.753906 C 39.902344 -76.753906 39.902344 -76.753906 39.902344 -76.96875 C 39.902344 -77.625 39.683594 -78.277344 39.683594 -78.933594 C 39.683594 -79.804688 39.683594 -80.457031 39.683594 -81.332031 C 39.464844 -82.203125 39.683594 -83.292969 39.464844 -84.382812 C 39.464844 -84.820312 39.464844 -85.472656 39.464844 -86.128906 C 39.464844 -86.347656 39.25 -86.78125 39.25 -87 C 39.25 -87.65625 39.25 -88.089844 39.25 -88.527344 C 39.03125 -89.617188 39.03125 -90.488281 39.03125 -91.578125 C 39.03125 -91.578125 39.03125 -91.796875 39.03125 -91.796875 C 39.03125 -92.234375 38.8125 -92.667969 38.8125 -93.324219 C 38.8125 -93.324219 38.8125 -93.542969 38.8125 -93.757812 C 38.8125 -94.195312 38.8125 -94.632812 38.59375 -95.285156 C 38.59375 -95.503906 38.59375 -95.722656 38.59375 -95.941406 C 38.59375 -96.59375 38.59375 -97.25 38.59375 -97.683594 C 38.375 -97.683594 38.375 -97.902344 38.375 -97.902344 C 38.375 -98.554688 38.375 -98.992188 38.375 -99.648438 C 38.15625 -100.082031 38.15625 -100.738281 38.15625 -101.171875 C 38.15625 -101.609375 38.15625 -102.261719 38.15625 -102.699219 C 37.941406 -103.355469 37.941406 -104.007812 37.941406 -104.445312 C 37.941406 -104.660156 37.941406 -104.660156 37.941406 -104.660156 C 37.941406 -105.316406 37.722656 -105.96875 37.722656 -106.625 C 37.722656 -107.496094 37.722656 -108.367188 37.722656 -109.023438 C 37.503906 -109.457031 37.722656 -110.113281 37.503906 -110.550781 C 37.503906 -110.984375 37.503906 -111.640625 37.503906 -112.074219 C 37.503906 -112.292969 37.503906 -112.292969 37.503906 -112.292969 C 37.285156 -112.949219 37.285156 -113.382812 37.285156 -114.039062 C 37.285156 -114.910156 37.285156 -115.78125 37.285156 -116.65625 C 37.285156 -116.871094 37.285156 -116.871094 37.285156 -116.871094 C 37.066406 -117.527344 37.066406 -118.179688 37.066406 -118.835938 C 36.851562 -119.488281 36.851562 -120.144531 36.851562 -120.796875 C 36.851562 -121.015625 36.851562 -121.015625 36.851562 -121.015625 C 36.851562 -121.667969 36.851562 -122.324219 36.851562 -122.757812 C 36.632812 -123.414062 36.632812 -124.066406 36.414062 -124.722656 C 36.414062 -125.375 36.414062 -126.03125 36.195312 -126.683594 C 36.195312 -127.121094 36.195312 -127.339844 36.195312 -127.773438 C 36.195312 -128.429688 35.976562 -129.082031 35.976562 -129.738281 C 35.757812 -130.390625 35.757812 -131.046875 35.757812 -131.699219 C 35.542969 -132.355469 35.542969 -133.226562 35.542969 -133.878906 C 35.324219 -134.097656 35.324219 -134.316406 35.324219 -134.535156 C 35.324219 -134.96875 35.324219 -135.40625 35.324219 -135.84375 C 35.105469 -136.496094 35.105469 -136.933594 35.105469 -137.585938 C 35.105469 -138.023438 35.105469 -138.457031 34.886719 -139.113281 C 34.886719 -139.984375 34.886719 -140.859375 34.886719 -141.730469 C 34.886719 -142.601562 34.886719 -143.257812 34.886719 -144.128906 C 34.667969 -145 34.667969 -145.65625 34.667969 -146.527344 C 34.667969 -147.179688 34.667969 -147.617188 34.667969 -148.269531 C 34.453125 -148.925781 34.453125 -149.796875 34.453125 -150.667969 C 34.453125 -151.324219 34.234375 -151.976562 34.234375 -152.632812 C 33.796875 -152.632812 33.578125 -152.632812 33.359375 -152.632812 C 33.144531 -152.632812 32.925781 -152.632812 32.707031 -152.632812 C 30.527344 -152.632812 28.347656 -152.632812 26.164062 -152.632812 C 26.164062 -152.632812 25.949219 -152.632812 25.730469 -152.632812 C 25.511719 -152.851562 25.292969 -152.851562 25.074219 -152.851562 C 23.765625 -152.851562 22.242188 -152.851562 20.933594 -152.632812 C 19.1875 -152.632812 17.445312 -152.632812 15.699219 -152.632812 C 15.480469 -152.632812 15.261719 -152.632812 15.261719 -152.632812 C 15.261719 -152.632812 15.046875 -152.632812 15.046875 -152.632812 C 15.046875 -151.757812 15.046875 -150.886719 14.828125 -150.015625 C 14.609375 -149.144531 14.609375 -148.269531 14.609375 -147.398438 C 14.609375 -147.179688 14.609375 -147.179688 14.609375 -147.179688 C 14.390625 -146.308594 14.171875 -145.4375 14.171875 -144.347656 C 14.171875 -143.910156 14.171875 -143.257812 13.953125 -142.601562 C 13.953125 -142.164062 13.953125 -141.730469 13.953125 -141.292969 C 13.953125 -140.640625 13.738281 -139.984375 13.738281 -139.332031 C 13.738281 -138.457031 13.738281 -137.804688 13.738281 -137.152344 C 13.738281 -136.933594 13.738281 -136.933594 13.738281 -136.933594 C 13.519531 -136.277344 13.519531 -135.84375 13.519531 -135.40625 C 13.519531 -135.1875 13.519531 -135.1875 13.519531 -134.96875 C 13.300781 -134.316406 13.300781 -133.660156 13.300781 -132.789062 C 13.300781 -132.570312 13.300781 -132.136719 13.300781 -131.917969 C 13.300781 -131.480469 13.082031 -131.046875 13.082031 -130.828125 C 13.082031 -129.957031 13.082031 -129.300781 12.863281 -128.429688 C 12.863281 -127.558594 12.863281 -126.683594 12.863281 -125.59375 C 12.863281 -124.722656 12.863281 -124.066406 12.648438 -123.195312 C 12.648438 -122.542969 12.648438 -122.105469 12.648438 -121.667969 C 12.429688 -120.796875 12.429688 -119.707031 12.429688 -118.835938 C 12.429688 -117.960938 12.429688 -117.089844 12.429688 -116.21875 C 12.210938 -115.347656 12.210938 -114.691406 12.210938 -113.820312 C 12.210938 -113.820312 12.210938 -113.820312 12.210938 -113.601562 C 12.210938 -112.949219 11.992188 -112.292969 11.992188 -111.421875 C 11.992188 -110.984375 11.992188 -110.550781 11.773438 -110.113281 C 11.773438 -109.242188 11.773438 -108.585938 11.554688 -107.714844 C 11.554688 -107.496094 11.554688 -107.277344 11.554688 -107.058594 C 11.554688 -106.625 11.554688 -106.1875 11.339844 -105.753906 C 11.339844 -105.097656 11.339844 -104.445312 11.339844 -103.789062 C 11.339844 -103.570312 11.339844 -103.570312 11.121094 -103.570312 C 11.121094 -103.136719 11.121094 -102.699219 11.121094 -102.261719 C 11.121094 -101.609375 11.121094 -100.957031 10.902344 -100.300781 C 10.902344 -100.300781 10.902344 -100.300781 10.902344 -100.082031 C 10.902344 -99.648438 10.902344 -99.210938 10.902344 -98.773438 C 10.683594 -98.121094 10.683594 -97.683594 10.683594 -97.03125 C 10.683594 -96.375 10.683594 -95.722656 10.683594 -94.851562 C 10.683594 -94.414062 10.683594 -93.976562 10.464844 -93.542969 C 10.464844 -92.886719 10.464844 -92.453125 10.464844 -91.796875 C 10.464844 -91.359375 10.464844 -90.925781 10.464844 -90.488281 C 10.25 -89.617188 10.25 -88.746094 10.25 -88.089844 C 10.25 -87.4375 10.25 -87 10.25 -86.5625 C 10.25 -85.910156 10.03125 -85.253906 10.03125 -84.601562 C 10.03125 -83.949219 10.03125 -83.292969 10.03125 -82.640625 C 10.03125 -82.203125 9.8125 -81.765625 9.8125 -81.332031 C 9.8125 -80.894531 9.8125 -80.242188 9.8125 -79.804688 C 9.59375 -78.714844 9.8125 -77.84375 9.59375 -76.753906 C 9.59375 -75.660156 9.59375 -74.789062 9.375 -73.699219 C 9.375 -73.046875 9.375 -72.390625 9.375 -71.519531 C 9.375 -71.082031 9.15625 -70.648438 9.15625 -70.210938 C 9.15625 -69.339844 8.941406 -68.683594 8.941406 -67.8125 C 8.941406 -67.15625 8.941406 -66.722656 8.941406 -66.066406 C 8.941406 -65.851562 8.941406 -65.851562 8.941406 -65.851562 C 8.722656 -65.195312 8.722656 -64.542969 8.722656 -63.886719 C 8.722656 -63.015625 8.503906 -61.925781 8.503906 -60.835938 C 8.503906 -60.179688 8.503906 -59.527344 8.503906 -58.871094 C 8.285156 -58.21875 8.285156 -57.5625 8.285156 -56.910156 C 8.285156 -55.820312 8.285156 -54.511719 8.285156 -53.421875 C 8.285156 -52.332031 8.066406 -51.242188 8.066406 -49.933594 C 8.066406 -49.277344 8.066406 -48.625 7.851562 -47.96875 C 7.851562 -46.878906 7.851562 -45.789062 7.851562 -44.699219 C 7.851562 -44.699219 7.851562 -44.480469 7.851562 -44.480469 C 7.851562 -43.828125 7.632812 -43.390625 7.632812 -42.738281 C 7.632812 -42.300781 7.632812 -41.863281 7.632812 -41.429688 C 7.414062 -40.773438 7.414062 -40.121094 7.414062 -39.464844 C 7.414062 -39.464844 7.414062 -39.25 7.414062 -39.25 C 7.414062 -38.8125 7.195312 -38.15625 7.195312 -37.722656 C 7.195312 -37.066406 7.195312 -36.195312 7.195312 -35.324219 C 6.976562 -34.667969 7.195312 -34.015625 6.976562 -33.359375 C 6.976562 -32.707031 6.976562 -31.835938 6.757812 -30.960938 C 6.757812 -30.308594 6.757812 -29.652344 6.542969 -28.78125 C 6.542969 -27.910156 6.542969 -27.253906 6.542969 -26.382812 C 6.542969 -25.730469 6.542969 -25.074219 6.542969 -24.421875 C 6.324219 -23.984375 6.324219 -23.332031 6.324219 -22.675781 C 6.105469 -22.023438 6.105469 -21.367188 6.105469 -20.496094 C 6.105469 -20.277344 6.105469 -20.277344 5.886719 -20.058594 C 5.886719 -19.40625 5.886719 -18.535156 5.886719 -17.878906 C 5.886719 -17.445312 5.667969 -17.007812 5.667969 -16.789062 C 5.667969 -16.351562 5.667969 -15.917969 5.449219 -15.480469 C 5.449219 -15.261719 5.449219 -14.828125 5.449219 -14.609375 C 5.449219 -14.171875 5.234375 -13.738281 5.234375 -13.300781 C 5.234375 -12.429688 5.234375 -11.554688 5.234375 -10.683594 C 5.234375 -10.464844 5.234375 -10.464844 5.234375 -10.464844 C 5.015625 -9.59375 5.015625 -8.941406 5.015625 -8.285156 C 5.015625 -7.851562 5.015625 -7.414062 5.015625 -6.976562 C 5.015625 -6.542969 4.796875 -5.886719 4.796875 -5.449219 C 4.796875 -4.796875 4.796875 -4.144531 4.578125 -3.488281 C 4.578125 -3.488281 4.578125 -3.488281 4.578125 -3.269531 C 4.578125 -2.835938 4.578125 -2.398438 4.578125 -1.746094 C 4.578125 -1.746094 4.578125 -1.527344 4.359375 -1.308594 C 4.359375 -0.871094 4.359375 -0.4375 4.359375 0 C 4.578125 0 4.796875 0 5.015625 0 C 6.976562 0 8.941406 -0.21875 11.121094 0 C 11.773438 0.21875 12.648438 0.21875 13.519531 0.21875 C 13.953125 0.21875 14.390625 0.21875 14.828125 0.21875 C 14.828125 0.21875 15.046875 0.21875 15.046875 0.21875 C 15.261719 -0.21875 15.261719 -0.652344 15.261719 -1.089844 C 15.261719 -1.308594 15.261719 -1.746094 15.480469 -1.960938 C 15.480469 -2.179688 15.480469 -2.617188 15.480469 -3.050781 C 15.480469 -3.269531 15.699219 -3.707031 15.699219 -4.144531 C 15.699219 -4.578125 15.699219 -4.796875 15.699219 -5.234375 C 15.917969 -5.886719 15.917969 -6.542969 15.917969 -7.195312 C 15.917969 -7.851562 15.917969 -8.285156 16.136719 -8.941406 C 16.136719 -9.59375 16.136719 -10.464844 16.136719 -11.121094 C 16.351562 -11.773438 16.351562 -12.210938 16.351562 -12.863281 C 16.351562 -13.738281 16.351562 -14.390625 16.570312 -15.261719 C 16.570312 -15.917969 16.570312 -16.570312 16.789062 -17.226562 C 16.789062 -17.660156 16.789062 -18.097656 16.789062 -18.316406 C 16.789062 -18.96875 17.007812 -19.625 17.007812 -20.058594 C 17.007812 -20.277344 17.007812 -20.496094 17.007812 -20.714844 C 17.007812 -21.367188 17.007812 -22.242188 17.226562 -23.113281 C 17.226562 -24.203125 17.226562 -25.511719 17.226562 -26.601562 C 17.226562 -26.601562 17.226562 -26.820312 17.226562 -26.820312 C 17.226562 -27.472656 17.445312 -28.128906 17.445312 -28.78125 C 17.445312 -29.21875 17.445312 -29.871094 17.445312 -30.527344 C 17.445312 -30.527344 17.445312 -30.527344 17.660156 -30.746094 C 17.660156 -31.179688 17.660156 -31.617188 17.660156 -32.050781 C 17.660156 -32.488281 17.660156 -32.925781 17.660156 -33.359375 C 17.878906 -34.015625 17.878906 -34.667969 17.878906 -35.324219 C 17.878906 -35.757812 17.878906 -36.414062 18.097656 -37.066406 C 18.097656 -37.503906 18.097656 -38.15625 18.097656 -38.8125 C 18.097656 -39.683594 18.316406 -40.554688 18.316406 -41.648438 C 18.316406 -41.863281 18.316406 -42.300781 18.535156 -42.738281 C 18.535156 -43.171875 18.535156 -43.390625 18.535156 -43.828125 C 18.535156 -44.699219 18.75 -45.789062 18.75 -46.660156 C 18.96875 -47.316406 18.96875 -47.96875 18.96875 -48.625 C 18.96875 -49.058594 18.96875 -49.496094 18.96875 -49.933594 C 18.96875 -50.152344 18.96875 -50.367188 18.96875 -50.804688 C 22.675781 -51.023438 26.382812 -50.804688 30.089844 -50.804688 Z M 29 -64.542969 C 27.910156 -64.324219 27.039062 -64.324219 26.164062 -64.105469 C 25.074219 -64.105469 23.984375 -64.105469 23.113281 -64.105469 C 22.894531 -64.105469 22.675781 -64.105469 22.457031 -64.105469 C 22.023438 -63.886719 21.367188 -63.886719 20.714844 -63.886719 C 20.277344 -63.886719 20.058594 -63.886719 19.625 -63.886719 C 19.40625 -64.105469 19.625 -64.324219 19.625 -64.542969 C 19.625 -64.757812 19.625 -64.976562 19.625 -65.195312 C 19.625 -65.851562 19.84375 -66.503906 19.84375 -67.15625 C 19.84375 -67.59375 19.84375 -68.03125 19.84375 -68.464844 C 20.058594 -68.902344 20.058594 -69.554688 20.058594 -70.210938 C 20.058594 -70.863281 20.277344 -71.519531 20.277344 -72.171875 C 20.277344 -72.828125 20.277344 -73.480469 20.277344 -74.136719 C 20.496094 -75.007812 20.496094 -75.878906 20.496094 -76.753906 C 20.496094 -77.40625 20.496094 -78.058594 20.714844 -78.714844 C 20.714844 -79.585938 20.714844 -80.242188 20.714844 -81.113281 C 20.714844 -81.765625 20.714844 -82.421875 20.933594 -83.074219 C 20.933594 -83.292969 20.933594 -83.949219 20.933594 -84.164062 C 21.152344 -85.039062 21.152344 -85.691406 21.152344 -86.347656 C 21.152344 -87.21875 21.367188 -88.089844 21.367188 -88.960938 C 21.367188 -89.398438 21.585938 -89.835938 21.585938 -90.269531 C 21.585938 -90.488281 21.585938 -90.925781 21.585938 -91.144531 C 21.804688 -91.796875 21.804688 -92.234375 21.804688 -92.667969 C 21.804688 -93.324219 21.804688 -93.757812 22.023438 -94.195312 C 22.023438 -94.195312 22.023438 -94.414062 22.023438 -94.414062 C 22.023438 -95.066406 22.023438 -95.722656 22.023438 -96.375 C 22.023438 -97.25 22.242188 -97.902344 22.242188 -98.554688 C 22.242188 -99.210938 22.242188 -99.648438 22.242188 -100.300781 C 22.457031 -100.957031 22.457031 -101.609375 22.457031 -102.261719 C 22.457031 -102.480469 22.675781 -102.917969 22.675781 -103.355469 C 22.675781 -104.226562 22.675781 -104.878906 22.675781 -105.535156 C 22.894531 -106.1875 22.894531 -106.625 22.894531 -106.84375 C 22.894531 -107.496094 22.894531 -107.714844 23.113281 -108.152344 C 23.113281 -108.585938 23.113281 -109.023438 23.113281 -109.242188 C 23.113281 -110.113281 23.332031 -110.765625 23.332031 -111.640625 C 23.332031 -112.074219 23.550781 -112.511719 23.550781 -112.949219 C 23.550781 -113.164062 23.550781 -113.601562 23.550781 -114.039062 C 23.765625 -114.691406 23.765625 -115.347656 23.765625 -116 C 23.984375 -116.4375 23.984375 -116.871094 23.984375 -117.089844 C 23.984375 -117.746094 23.984375 -118.179688 23.984375 -118.617188 C 24.203125 -119.269531 24.203125 -119.707031 24.203125 -120.144531 C 24.203125 -120.144531 24.203125 -120.359375 24.203125 -120.359375 C 24.203125 -121.015625 24.203125 -121.667969 24.421875 -122.324219 C 24.421875 -123.195312 24.421875 -123.851562 24.640625 -124.722656 C 24.640625 -124.722656 24.640625 -124.941406 24.640625 -125.15625 C 24.640625 -126.03125 24.640625 -126.902344 24.640625 -127.992188 C 24.855469 -127.558594 24.855469 -127.121094 24.855469 -126.683594 C 24.855469 -126.25 24.855469 -125.8125 25.074219 -125.375 C 25.074219 -125.15625 25.074219 -124.722656 25.074219 -124.285156 C 25.074219 -123.632812 25.074219 -122.976562 25.292969 -122.324219 C 25.292969 -121.667969 25.292969 -121.234375 25.292969 -120.796875 C 25.292969 -120.578125 25.292969 -120.578125 25.292969 -120.578125 C 25.511719 -119.925781 25.511719 -119.488281 25.511719 -118.835938 C 25.511719 -118.179688 25.511719 -117.308594 25.730469 -116.4375 C 25.730469 -115.78125 25.730469 -115.128906 25.730469 -114.691406 C 25.730469 -113.820312 25.730469 -113.164062 25.949219 -112.511719 C 25.949219 -112.074219 25.949219 -111.421875 25.949219 -110.984375 C 25.949219 -110.984375 25.949219 -110.984375 25.949219 -110.765625 C 26.164062 -110.113281 26.164062 -109.457031 26.164062 -108.804688 C 26.164062 -108.152344 26.164062 -107.496094 26.382812 -107.058594 C 26.382812 -106.40625 26.382812 -105.96875 26.382812 -105.535156 C 26.382812 -104.878906 26.601562 -104.226562 26.601562 -103.570312 C 26.601562 -103.570312 26.601562 -103.570312 26.601562 -103.355469 C 26.601562 -102.699219 26.601562 -102.046875 26.601562 -101.171875 C 26.820312 -100.738281 26.820312 -100.300781 26.820312 -99.863281 C 26.820312 -99.429688 26.820312 -98.992188 27.039062 -98.554688 C 27.039062 -97.683594 27.039062 -96.8125 27.039062 -96.15625 C 27.253906 -95.503906 27.253906 -95.066406 27.253906 -94.632812 C 27.253906 -93.976562 27.253906 -93.542969 27.472656 -92.886719 C 27.472656 -92.886719 27.472656 -92.667969 27.472656 -92.453125 C 27.472656 -91.796875 27.472656 -91.144531 27.472656 -90.488281 C 27.691406 -89.179688 27.691406 -88.089844 27.691406 -87 C 27.691406 -86.347656 27.910156 -85.910156 27.910156 -85.253906 C 27.910156 -85.039062 27.910156 -84.820312 27.910156 -84.601562 C 27.910156 -83.511719 27.910156 -82.640625 28.128906 -81.765625 C 28.128906 -80.894531 28.128906 -80.023438 28.128906 -79.152344 C 28.128906 -78.496094 28.347656 -77.625 28.347656 -76.96875 C 28.347656 -76.96875 28.347656 -76.96875 28.347656 -76.753906 C 28.347656 -75.878906 28.347656 -74.789062 28.347656 -73.699219 C 28.347656 -72.828125 28.5625 -71.738281 28.5625 -70.863281 C 28.5625 -70.863281 28.5625 -70.648438 28.5625 -70.648438 C 28.5625 -69.554688 28.5625 -68.683594 28.78125 -67.8125 C 28.78125 -66.722656 29 -65.851562 29 -64.757812 C 29 -64.757812 29 -64.542969 29 -64.542969 Z M 29 -64.542969 "/></g></g></g><g fill="#db4a2b" fill-opacity="1"><g transform="translate(135.702059, 262.262259)"><g/></g></g><g fill="#db4a2b" fill-opacity="1"><g transform="translate(156.850969, 262.262259)"><g><path d="M 19.84375 -139.765625 C 19.84375 -139.550781 19.84375 -139.332031 19.84375 -139.113281 C 19.84375 -138.457031 19.84375 -137.585938 19.84375 -136.714844 C 19.84375 -132.136719 19.84375 -127.558594 19.84375 -122.976562 C 19.84375 -119.269531 19.84375 -115.347656 19.84375 -111.640625 C 19.84375 -109.675781 19.84375 -107.933594 19.84375 -106.1875 C 19.625 -104.226562 19.84375 -102.261719 19.84375 -100.300781 C 19.84375 -97.464844 19.84375 -94.632812 19.84375 -91.796875 C 19.84375 -90.488281 19.84375 -88.960938 19.84375 -87.65625 C 19.84375 -83.730469 19.84375 -79.804688 19.84375 -75.660156 C 19.84375 -74.570312 19.84375 -73.261719 19.84375 -71.953125 C 19.84375 -69.339844 19.84375 -66.722656 19.84375 -64.105469 C 19.84375 -63.015625 20.058594 -61.925781 20.058594 -60.835938 C 20.058594 -59.527344 19.84375 -58 19.84375 -56.472656 C 19.625 -55.382812 19.625 -54.074219 19.625 -52.984375 C 19.625 -48.625 19.625 -44.261719 19.84375 -39.902344 C 19.84375 -37.285156 19.625 -34.667969 19.84375 -32.050781 C 19.84375 -31.398438 19.84375 -30.527344 19.84375 -29.871094 C 19.84375 -27.472656 19.84375 -25.292969 19.84375 -22.894531 C 20.058594 -22.023438 19.84375 -21.152344 20.058594 -20.277344 C 20.058594 -18.316406 19.84375 -16.136719 19.84375 -14.171875 C 19.84375 -13.953125 19.84375 -13.953125 19.84375 -13.953125 C 19.84375 -13.082031 19.625 -12.429688 19.625 -11.554688 C 19.625 -7.851562 19.625 -3.925781 19.625 0 C 19.625 0.21875 19.625 0.21875 19.625 0.4375 C 19.84375 0.4375 19.84375 0.4375 19.84375 0.4375 C 20.933594 0.4375 22.242188 0.4375 23.332031 0.4375 C 24.640625 0.4375 25.949219 0.4375 27.039062 0.4375 C 28.5625 0.21875 29.871094 0.21875 31.398438 0.21875 C 31.398438 0.21875 31.398438 0.21875 31.617188 0.21875 C 31.617188 0.21875 31.617188 0.21875 31.617188 0 C 31.617188 -3.050781 31.617188 -6.105469 31.617188 -9.15625 C 31.617188 -10.683594 31.617188 -12.210938 31.617188 -13.519531 C 31.617188 -18.96875 31.617188 -24.640625 31.835938 -30.089844 C 31.835938 -32.925781 31.835938 -35.976562 31.617188 -39.03125 C 31.617188 -40.992188 31.617188 -42.953125 31.617188 -44.917969 C 31.617188 -46.660156 31.617188 -48.625 31.617188 -50.367188 C 31.617188 -52.765625 31.617188 -54.949219 31.617188 -57.347656 C 31.835938 -58.871094 31.835938 -60.179688 31.835938 -61.707031 C 31.835938 -65.195312 31.835938 -68.683594 31.617188 -71.953125 C 31.617188 -75.878906 31.617188 -79.585938 31.617188 -83.292969 C 31.617188 -84.601562 31.835938 -85.691406 31.835938 -87 C 31.835938 -87.21875 31.835938 -87.65625 31.835938 -88.089844 C 31.835938 -89.617188 31.835938 -91.359375 31.617188 -92.886719 C 31.617188 -93.976562 31.617188 -95.066406 31.617188 -96.15625 C 31.617188 -99.210938 31.617188 -102.261719 31.617188 -105.316406 C 31.835938 -107.496094 31.617188 -109.457031 31.835938 -111.640625 C 31.835938 -114.691406 31.835938 -117.527344 31.835938 -120.578125 C 31.835938 -123.414062 31.835938 -126.25 31.835938 -129.082031 C 32.050781 -129.957031 31.835938 -130.828125 31.835938 -131.699219 C 31.835938 -133.878906 31.835938 -136.058594 31.835938 -138.242188 C 31.835938 -138.457031 31.835938 -138.894531 31.835938 -139.113281 C 31.835938 -139.113281 31.835938 -139.332031 31.835938 -139.550781 C 31.835938 -139.550781 32.050781 -139.550781 32.050781 -139.550781 C 32.707031 -139.550781 33.359375 -139.550781 34.234375 -139.550781 C 35.324219 -139.550781 36.414062 -139.765625 37.503906 -139.765625 C 38.15625 -139.765625 38.8125 -139.765625 39.464844 -139.765625 C 39.683594 -139.765625 39.683594 -139.765625 39.902344 -139.765625 C 40.339844 -139.765625 40.773438 -139.765625 41.210938 -139.765625 C 41.648438 -139.984375 42.082031 -139.984375 42.300781 -139.984375 C 42.738281 -139.984375 42.953125 -139.984375 43.171875 -140.203125 C 43.390625 -140.421875 43.390625 -140.859375 43.390625 -141.292969 C 43.390625 -144.128906 43.390625 -146.960938 43.390625 -149.796875 C 43.609375 -150.667969 43.390625 -151.324219 43.390625 -152.195312 C 43.390625 -152.195312 43.390625 -152.195312 43.390625 -152.414062 C 43.171875 -152.414062 43.171875 -152.414062 42.953125 -152.414062 C 41.863281 -152.414062 40.992188 -152.414062 39.902344 -152.414062 C 37.503906 -152.195312 35.105469 -152.195312 32.707031 -152.414062 C 29 -152.414062 25.074219 -152.195312 21.367188 -152.414062 C 19.84375 -152.414062 18.535156 -152.414062 17.007812 -152.414062 C 16.136719 -152.195312 15.261719 -152.414062 14.171875 -152.414062 C 13.519531 -152.414062 12.648438 -152.414062 11.773438 -152.414062 C 11.554688 -152.414062 11.339844 -152.414062 10.902344 -152.414062 C 10.464844 -152.414062 9.8125 -152.414062 9.375 -152.414062 C 8.722656 -152.195312 8.285156 -152.414062 7.851562 -152.414062 C 7.851562 -151.757812 7.632812 -151.105469 7.632812 -150.667969 C 7.632812 -148.925781 7.632812 -147.398438 7.632812 -145.65625 C 7.851562 -144.347656 7.851562 -143.039062 7.851562 -141.730469 C 7.851562 -141.292969 7.851562 -140.859375 8.066406 -140.421875 C 8.066406 -140.203125 8.066406 -139.765625 8.066406 -139.550781 C 8.285156 -139.550781 8.285156 -139.550781 8.285156 -139.550781 C 9.15625 -139.550781 10.03125 -139.765625 10.902344 -139.765625 C 13.738281 -139.765625 16.789062 -139.765625 19.625 -139.765625 C 19.625 -139.765625 19.84375 -139.765625 19.84375 -139.765625 Z M 19.84375 -139.765625 "/></g></g></g><g fill="#db4a2b" fill-opacity="1"><g transform="translate(196.750964, 262.262259)"><g><path d="M 7.851562 -152.414062 C 7.851562 -152.195312 7.851562 -151.976562 7.851562 -151.542969 C 7.851562 -150.886719 7.851562 -150.234375 7.851562 -149.578125 C 7.851562 -149.359375 7.851562 -149.144531 7.851562 -148.925781 C 7.851562 -147.835938 7.632812 -146.746094 7.632812 -145.871094 C 7.632812 -145.21875 7.851562 -144.5625 7.851562 -143.910156 C 7.851562 -141.730469 7.851562 -139.332031 7.632812 -137.152344 C 7.632812 -132.570312 7.632812 -127.992188 7.851562 -123.414062 C 7.851562 -119.488281 7.851562 -115.78125 7.851562 -111.855469 C 7.851562 -110.113281 7.851562 -108.367188 7.632812 -106.625 C 7.632812 -104.660156 7.632812 -102.699219 7.632812 -100.738281 C 7.632812 -97.902344 7.632812 -95.066406 7.632812 -92.234375 C 7.632812 -90.707031 7.851562 -89.398438 7.851562 -87.871094 C 7.851562 -83.949219 7.851562 -80.023438 7.632812 -76.097656 C 7.632812 -74.789062 7.632812 -73.261719 7.632812 -71.953125 C 7.632812 -69.554688 7.632812 -66.941406 7.851562 -64.542969 C 7.851562 -63.453125 7.851562 -62.359375 7.851562 -61.269531 C 7.851562 -59.746094 7.851562 -58.4375 7.632812 -56.910156 C 7.632812 -55.820312 7.632812 -54.730469 7.632812 -53.640625 C 7.632812 -49.277344 7.632812 -44.699219 7.632812 -40.339844 C 7.851562 -37.722656 7.632812 -35.105469 7.851562 -32.488281 C 7.851562 -31.617188 7.851562 -30.746094 7.851562 -30.089844 C 7.851562 -27.691406 7.632812 -25.511719 7.851562 -23.332031 C 7.851562 -22.675781 7.851562 -21.804688 7.851562 -20.933594 C 7.851562 -18.75 7.851562 -16.570312 7.851562 -14.390625 C 7.851562 -14.390625 7.851562 -14.390625 7.851562 -14.171875 C 7.632812 -13.519531 7.632812 -12.648438 7.632812 -11.773438 C 7.632812 -8.285156 7.632812 -5.015625 7.632812 -1.527344 C 7.632812 -0.871094 7.632812 -0.4375 7.632812 0 C 7.632812 0 7.632812 0 7.851562 0 C 8.941406 0 10.25 0 11.339844 0.21875 C 12.429688 0.21875 13.738281 0.21875 14.828125 0 C 16.351562 0 17.660156 0 19.1875 0 C 19.1875 0 19.40625 0 19.40625 0 C 19.40625 -0.21875 19.40625 -0.21875 19.40625 -0.21875 C 19.625 -3.269531 19.40625 -6.324219 19.625 -9.375 C 19.625 -11.554688 19.625 -13.738281 19.625 -15.917969 C 19.625 -20.714844 19.625 -25.511719 19.625 -30.308594 C 19.625 -33.359375 19.625 -36.414062 19.625 -39.464844 C 19.625 -41.210938 19.625 -43.171875 19.40625 -45.136719 C 19.40625 -46.660156 19.40625 -48.1875 19.40625 -49.496094 C 19.625 -52.332031 19.40625 -54.949219 19.625 -57.78125 C 19.625 -59.308594 19.625 -60.835938 19.625 -62.359375 C 19.625 -65.632812 19.625 -68.902344 19.625 -72.171875 C 19.625 -75.445312 19.625 -78.714844 19.625 -81.984375 C 19.625 -83.730469 19.625 -85.253906 19.625 -87 C 19.625 -87.4375 19.625 -87.871094 19.625 -88.308594 C 19.625 -89.835938 19.625 -91.578125 19.625 -93.324219 C 19.625 -94.414062 19.625 -95.503906 19.40625 -96.375 C 19.625 -99.648438 19.40625 -102.699219 19.625 -105.753906 C 19.625 -107.933594 19.625 -110.113281 19.625 -112.292969 C 19.84375 -115.128906 19.625 -117.960938 19.625 -120.796875 C 19.84375 -123.632812 19.625 -126.464844 19.84375 -129.300781 C 19.84375 -130.171875 19.84375 -131.046875 19.84375 -131.917969 C 19.625 -134.753906 19.84375 -137.367188 19.625 -140.203125 C 19.625 -141.511719 19.625 -142.601562 19.625 -143.910156 C 19.625 -145.4375 19.625 -146.960938 19.40625 -148.488281 C 19.40625 -149.796875 19.40625 -150.886719 19.40625 -152.195312 C 19.40625 -152.414062 19.40625 -152.632812 19.40625 -152.632812 C 19.1875 -152.632812 19.1875 -152.632812 18.96875 -152.632812 C 18.316406 -152.632812 17.445312 -152.632812 16.789062 -152.632812 C 14.609375 -152.632812 12.429688 -152.632812 10.464844 -152.632812 C 9.8125 -152.632812 9.15625 -152.632812 8.285156 -152.414062 C 8.285156 -152.414062 8.066406 -152.414062 7.851562 -152.414062 Z M 7.851562 -152.414062 "/></g></g></g><g fill="#db4a2b" fill-opacity="1"><g transform="translate(212.885069, 262.262259)"><g><path d="M 44.699219 -106.625 C 44.699219 -107.058594 44.699219 -107.277344 44.699219 -107.714844 C 44.699219 -108.152344 44.917969 -108.585938 44.917969 -109.023438 C 44.917969 -110.550781 44.917969 -112.074219 44.917969 -113.601562 C 44.917969 -116 44.917969 -118.398438 44.917969 -120.796875 C 44.917969 -121.667969 44.917969 -122.757812 44.917969 -123.632812 C 44.917969 -123.851562 44.917969 -123.851562 44.917969 -123.851562 C 44.917969 -124.503906 44.699219 -125.15625 44.699219 -125.8125 C 44.699219 -126.683594 44.699219 -127.773438 44.699219 -128.648438 C 44.699219 -129.300781 44.699219 -129.957031 44.699219 -130.609375 C 44.917969 -131.480469 44.699219 -132.355469 44.699219 -133.007812 C 44.699219 -133.878906 44.699219 -134.96875 44.699219 -135.84375 C 44.480469 -136.496094 44.261719 -137.367188 44.046875 -138.023438 C 43.390625 -139.984375 42.738281 -141.730469 42.082031 -143.691406 C 41.863281 -144.128906 41.648438 -144.5625 41.429688 -145 C 41.210938 -145.4375 40.992188 -145.65625 40.554688 -146.089844 C 40.339844 -146.527344 40.121094 -146.960938 39.683594 -147.179688 C 39.25 -147.835938 39.03125 -148.269531 38.59375 -148.925781 C 38.375 -149.144531 38.15625 -149.578125 37.941406 -149.578125 C 37.503906 -150.015625 37.285156 -150.234375 36.851562 -150.453125 C 36.195312 -150.667969 35.757812 -151.105469 35.105469 -151.324219 C 34.234375 -151.976562 33.144531 -152.414062 32.050781 -152.632812 C 31.835938 -152.851562 31.398438 -152.851562 30.960938 -153.066406 C 29.871094 -153.285156 28.5625 -153.503906 27.253906 -153.722656 C 27.039062 -153.722656 26.601562 -153.722656 26.382812 -153.722656 C 25.511719 -153.722656 24.640625 -153.722656 23.765625 -153.722656 C 23.765625 -153.722656 23.550781 -153.722656 23.550781 -153.722656 C 23.113281 -153.503906 22.675781 -153.503906 22.242188 -153.285156 C 21.585938 -153.285156 20.933594 -152.851562 20.058594 -152.632812 C 19.40625 -152.195312 18.75 -151.976562 18.097656 -151.542969 C 17.445312 -151.105469 16.789062 -150.667969 15.917969 -150.234375 C 15.699219 -150.015625 15.480469 -149.796875 15.046875 -149.578125 C 14.390625 -148.925781 13.953125 -148.488281 13.519531 -147.617188 C 13.082031 -147.179688 12.863281 -146.746094 12.429688 -146.308594 C 12.210938 -145.871094 11.992188 -145.4375 11.554688 -145 C 11.121094 -144.347656 10.683594 -143.691406 10.25 -143.039062 C 9.59375 -141.949219 9.375 -140.859375 8.941406 -139.550781 C 8.722656 -138.675781 8.722656 -138.023438 8.503906 -137.152344 C 8.285156 -136.058594 8.285156 -134.96875 8.285156 -133.878906 C 8.066406 -133.226562 8.285156 -132.355469 8.285156 -131.699219 C 8.285156 -131.480469 8.285156 -131.480469 8.066406 -131.261719 C 8.066406 -130.828125 8.066406 -130.171875 8.066406 -129.738281 C 8.066406 -129.300781 7.851562 -128.863281 7.851562 -128.429688 C 7.851562 -127.558594 7.632812 -126.902344 7.632812 -126.25 C 7.632812 -124.503906 7.632812 -122.757812 7.632812 -121.015625 C 7.632812 -120.578125 7.632812 -120.144531 7.851562 -119.707031 C 7.851562 -118.835938 7.851562 -117.960938 7.851562 -116.871094 C 7.851562 -115.78125 8.066406 -114.691406 8.066406 -113.382812 C 8.066406 -112.074219 8.066406 -110.765625 8.066406 -109.457031 C 8.066406 -106.1875 8.066406 -102.480469 8.285156 -98.992188 C 8.285156 -98.554688 8.285156 -98.339844 8.285156 -97.902344 C 8.066406 -95.722656 8.285156 -93.757812 8.066406 -91.796875 C 8.066406 -90.054688 8.066406 -88.308594 8.285156 -86.5625 C 8.285156 -85.910156 8.285156 -85.472656 8.285156 -85.039062 C 8.285156 -83.511719 8.285156 -81.765625 8.285156 -80.242188 C 8.285156 -76.753906 8.285156 -73.261719 8.285156 -69.773438 C 8.066406 -66.941406 8.285156 -64.105469 8.285156 -61.269531 C 8.066406 -58.4375 8.285156 -55.601562 8.066406 -52.765625 C 8.066406 -49.277344 8.285156 -45.789062 8.066406 -42.519531 C 7.851562 -40.992188 8.066406 -39.683594 7.851562 -38.15625 C 7.851562 -37.285156 7.851562 -36.195312 7.851562 -35.324219 C 7.632812 -33.796875 7.632812 -32.488281 7.632812 -30.960938 C 7.632812 -29 7.632812 -27.039062 7.851562 -25.074219 C 7.851562 -24.855469 7.851562 -24.421875 7.851562 -24.203125 C 8.066406 -23.765625 8.066406 -23.550781 8.066406 -23.113281 C 8.066406 -22.457031 8.066406 -22.023438 8.066406 -21.367188 C 8.285156 -20.277344 8.066406 -18.96875 8.285156 -17.660156 C 8.285156 -17.445312 8.285156 -17.007812 8.285156 -16.789062 C 8.503906 -16.351562 8.503906 -16.136719 8.503906 -15.699219 C 8.722656 -15.046875 8.722656 -14.171875 8.941406 -13.519531 C 9.15625 -12.863281 9.375 -12.210938 9.59375 -11.554688 C 10.03125 -10.25 10.683594 -8.941406 11.554688 -8.066406 C 11.773438 -7.851562 11.773438 -7.851562 11.992188 -7.632812 C 12.210938 -7.195312 12.429688 -6.757812 12.863281 -6.324219 C 13.082031 -6.105469 13.082031 -5.886719 13.300781 -5.667969 C 13.738281 -4.796875 14.390625 -4.144531 15.046875 -3.488281 C 15.917969 -2.835938 16.570312 -2.398438 17.445312 -1.746094 C 17.878906 -1.527344 18.316406 -1.308594 18.96875 -1.089844 C 19.1875 -1.089844 19.1875 -0.871094 19.40625 -0.871094 C 19.625 -0.652344 20.058594 -0.4375 20.496094 -0.21875 C 21.152344 0 22.023438 0.21875 22.894531 0.4375 C 23.550781 0.652344 24.421875 0.652344 25.292969 0.871094 C 26.164062 0.871094 27.253906 0.871094 28.128906 0.652344 C 29 0.4375 29.871094 0.21875 30.746094 0.21875 C 31.398438 0 32.050781 -0.21875 32.707031 -0.4375 C 33.578125 -0.871094 34.453125 -1.089844 35.105469 -1.746094 C 35.757812 -1.960938 36.195312 -2.398438 36.851562 -2.617188 C 37.503906 -3.050781 38.15625 -3.488281 38.8125 -4.144531 C 39.464844 -5.015625 40.121094 -5.667969 40.773438 -6.542969 C 41.210938 -7.195312 41.648438 -8.066406 42.082031 -8.941406 C 42.300781 -9.59375 42.738281 -10.464844 42.953125 -11.339844 C 43.171875 -11.773438 43.390625 -12.429688 43.609375 -12.863281 C 44.046875 -14.171875 44.261719 -15.261719 44.699219 -16.351562 C 44.699219 -16.570312 44.699219 -16.570312 44.699219 -16.570312 C 44.699219 -17.660156 44.699219 -18.535156 44.699219 -19.40625 C 44.699219 -20.714844 44.917969 -22.023438 44.699219 -23.332031 C 44.699219 -24.640625 44.699219 -25.949219 44.699219 -27.253906 C 44.699219 -27.253906 44.699219 -27.253906 44.699219 -27.472656 C 44.699219 -28.128906 44.917969 -28.78125 44.917969 -29.21875 C 44.917969 -30.527344 44.917969 -31.835938 44.917969 -33.144531 C 44.917969 -35.542969 44.917969 -37.941406 44.917969 -40.339844 C 44.917969 -41.429688 44.917969 -42.519531 44.917969 -43.609375 C 44.917969 -44.046875 44.917969 -44.261719 44.699219 -44.480469 C 44.699219 -44.699219 44.699219 -44.917969 44.699219 -45.136719 C 44.699219 -45.570312 44.699219 -45.789062 44.480469 -46.226562 C 44.261719 -46.226562 44.261719 -46.226562 44.046875 -46.445312 C 43.828125 -46.445312 43.609375 -46.445312 43.171875 -46.445312 C 40.992188 -46.445312 38.59375 -46.445312 36.195312 -46.445312 C 35.542969 -46.226562 34.886719 -46.445312 34.234375 -46.445312 C 34.015625 -46.445312 34.015625 -46.445312 33.796875 -46.445312 C 33.578125 -46.445312 33.144531 -46.226562 32.925781 -46.226562 C 32.925781 -46.226562 32.707031 -46.226562 32.707031 -46.226562 C 32.707031 -46.007812 32.488281 -46.007812 32.707031 -45.789062 C 32.707031 -44.261719 32.707031 -42.738281 32.707031 -41.210938 C 32.707031 -40.773438 32.707031 -40.339844 32.707031 -40.121094 C 32.707031 -37.503906 32.707031 -35.105469 32.707031 -32.707031 C 32.488281 -31.617188 32.488281 -30.527344 32.488281 -29.652344 C 32.488281 -28.78125 32.488281 -27.910156 32.488281 -27.039062 C 32.707031 -25.730469 32.707031 -24.421875 32.707031 -23.113281 C 32.707031 -22.457031 32.488281 -22.023438 32.488281 -21.585938 C 32.488281 -20.714844 32.269531 -19.84375 32.269531 -18.96875 C 32.050781 -18.097656 32.050781 -17.226562 31.835938 -16.351562 C 31.617188 -15.699219 31.398438 -15.046875 30.960938 -14.609375 C 30.960938 -14.390625 30.746094 -14.171875 30.527344 -13.953125 C 30.089844 -13.738281 29.871094 -13.519531 29.652344 -13.300781 C 29 -12.863281 28.128906 -12.429688 27.253906 -12.210938 C 27.253906 -12.210938 27.253906 -12.210938 27.039062 -12.210938 C 26.601562 -12.210938 25.949219 -12.210938 25.511719 -12.210938 C 25.074219 -12.210938 24.640625 -12.429688 23.984375 -12.429688 C 23.984375 -12.429688 23.765625 -12.648438 23.765625 -12.648438 C 23.332031 -12.863281 22.894531 -13.519531 22.457031 -13.738281 C 22.023438 -14.390625 21.804688 -14.828125 21.367188 -15.480469 C 20.933594 -16.351562 20.714844 -17.007812 20.714844 -17.878906 C 20.496094 -18.75 20.277344 -19.40625 20.277344 -20.058594 C 20.277344 -20.714844 20.277344 -21.367188 20.277344 -22.242188 C 20.277344 -25.292969 20.058594 -28.347656 20.058594 -31.398438 C 20.058594 -38.375 20.058594 -45.351562 20.277344 -52.113281 C 20.277344 -53.855469 20.277344 -55.601562 20.277344 -57.347656 C 20.277344 -58.652344 20.277344 -59.960938 20.277344 -61.269531 C 20.496094 -62.359375 20.496094 -63.453125 20.496094 -64.324219 C 20.496094 -66.066406 20.496094 -68.03125 20.496094 -69.773438 C 20.496094 -69.992188 20.496094 -70.210938 20.496094 -70.210938 C 20.496094 -70.429688 20.496094 -70.648438 20.496094 -70.863281 C 20.496094 -71.519531 20.496094 -72.171875 20.496094 -72.828125 C 20.496094 -73.480469 20.496094 -74.136719 20.496094 -75.007812 C 20.496094 -76.316406 20.496094 -77.625 20.496094 -79.152344 C 20.277344 -80.023438 20.277344 -80.894531 20.277344 -81.765625 C 20.277344 -83.074219 20.277344 -84.382812 20.058594 -85.691406 C 20.058594 -86.78125 20.058594 -87.871094 20.058594 -88.746094 C 20.058594 -91.359375 20.058594 -93.757812 20.058594 -96.375 C 20.058594 -97.683594 20.058594 -99.210938 20.058594 -100.519531 C 20.277344 -102.699219 20.277344 -104.878906 20.277344 -107.058594 C 20.277344 -108.804688 20.277344 -110.332031 20.277344 -112.074219 C 20.496094 -112.949219 20.496094 -114.039062 20.496094 -114.910156 C 20.496094 -117.089844 20.496094 -119.269531 20.277344 -121.453125 C 20.277344 -121.886719 20.277344 -122.324219 20.277344 -122.757812 C 20.277344 -123.195312 20.277344 -123.414062 20.277344 -123.851562 C 20.277344 -124.503906 20.277344 -125.375 20.277344 -126.03125 C 20.277344 -126.683594 20.277344 -127.339844 20.277344 -127.992188 C 20.277344 -128.648438 20.496094 -129.519531 20.496094 -130.171875 C 20.496094 -131.046875 20.496094 -131.917969 20.496094 -132.789062 C 20.714844 -133.445312 20.714844 -134.097656 20.714844 -134.753906 C 20.714844 -134.753906 20.714844 -134.753906 20.714844 -134.96875 C 20.714844 -135.84375 20.933594 -136.496094 21.367188 -137.367188 C 21.585938 -137.804688 21.804688 -138.242188 22.023438 -138.675781 C 22.457031 -139.113281 22.894531 -139.765625 23.332031 -139.984375 C 23.550781 -140.203125 23.765625 -140.421875 23.984375 -140.421875 C 24.640625 -140.640625 25.074219 -140.859375 25.511719 -140.859375 C 26.164062 -140.859375 26.601562 -140.859375 27.039062 -140.859375 C 27.253906 -140.859375 27.253906 -140.859375 27.472656 -140.859375 C 27.910156 -140.640625 28.347656 -140.421875 28.78125 -140.203125 C 29.21875 -139.984375 29.652344 -139.765625 30.089844 -139.332031 C 30.527344 -139.113281 30.746094 -138.894531 30.960938 -138.675781 C 31.179688 -138.242188 31.398438 -137.804688 31.617188 -137.367188 C 31.835938 -136.277344 32.050781 -135.1875 32.269531 -133.878906 C 32.269531 -133.660156 32.269531 -133.445312 32.488281 -133.007812 C 32.488281 -132.136719 32.707031 -131.046875 32.707031 -129.957031 C 32.707031 -128.863281 32.707031 -127.773438 32.707031 -126.464844 C 32.707031 -124.066406 32.707031 -121.453125 32.707031 -119.054688 C 32.707031 -115.78125 32.707031 -112.730469 32.707031 -109.675781 C 32.707031 -109.242188 32.707031 -108.804688 32.707031 -108.152344 C 32.707031 -107.714844 32.488281 -107.058594 32.707031 -106.40625 C 32.925781 -106.40625 33.359375 -106.40625 33.578125 -106.40625 C 34.453125 -106.40625 35.324219 -106.1875 36.195312 -106.40625 C 36.632812 -106.40625 37.066406 -106.40625 37.503906 -106.625 C 37.941406 -106.625 38.59375 -106.625 39.03125 -106.625 C 40.773438 -106.625 42.519531 -106.625 44.046875 -106.625 C 44.261719 -106.625 44.480469 -106.625 44.699219 -106.625 Z M 44.699219 -106.625 "/></g></g></g><g fill="#db4a2b" fill-opacity="1"><g transform="translate(254.093262, 262.262259)"><g><path d="M 44.480469 0.4375 C 44.480469 -0.4375 44.261719 -1.089844 44.046875 -1.960938 C 44.046875 -2.398438 44.046875 -3.050781 43.828125 -3.488281 C 43.828125 -4.144531 43.609375 -4.796875 43.609375 -5.234375 C 43.390625 -5.886719 43.390625 -6.542969 43.171875 -7.195312 C 43.171875 -7.851562 42.953125 -8.722656 42.953125 -9.375 C 42.738281 -10.25 42.519531 -11.121094 42.300781 -12.210938 C 42.082031 -13.519531 41.863281 -14.609375 41.648438 -15.917969 C 41.429688 -17.007812 41.210938 -18.316406 40.992188 -19.40625 C 40.773438 -20.058594 40.554688 -20.933594 40.339844 -21.585938 C 40.121094 -22.457031 39.902344 -23.332031 39.683594 -24.203125 C 39.25 -26.382812 38.8125 -28.5625 38.375 -30.746094 C 38.15625 -31.835938 37.941406 -32.925781 37.722656 -34.015625 C 37.503906 -35.105469 37.285156 -35.976562 37.066406 -36.851562 C 36.851562 -37.503906 36.632812 -38.15625 36.632812 -38.8125 C 36.195312 -40.554688 35.976562 -42.082031 35.542969 -43.609375 C 35.324219 -45.136719 34.886719 -46.445312 34.453125 -47.96875 C 34.234375 -50.152344 33.578125 -52.332031 33.359375 -54.292969 C 33.144531 -55.164062 33.144531 -55.820312 32.925781 -56.691406 C 32.707031 -58.4375 32.269531 -59.960938 31.835938 -61.488281 C 31.617188 -62.796875 31.398438 -64.105469 30.960938 -65.195312 C 30.746094 -66.285156 30.527344 -67.375 30.308594 -68.464844 C 30.089844 -69.992188 29.652344 -71.519531 29.4375 -73.046875 C 29.21875 -74.136719 29 -75.445312 28.78125 -76.535156 C 28.5625 -77.1875 28.5625 -77.625 28.347656 -78.277344 C 27.910156 -80.675781 27.472656 -82.855469 27.039062 -85.039062 C 26.820312 -85.253906 26.820312 -85.691406 27.039062 -85.910156 C 27.253906 -86.347656 27.253906 -86.5625 27.472656 -87 C 27.910156 -88.746094 28.347656 -90.707031 28.78125 -92.453125 C 29.4375 -94.851562 30.308594 -97.464844 30.746094 -100.082031 C 30.960938 -100.738281 31.179688 -101.171875 31.179688 -101.828125 C 31.398438 -102.261719 31.398438 -102.917969 31.617188 -103.355469 C 32.050781 -104.878906 32.488281 -106.1875 32.925781 -107.496094 C 33.144531 -108.585938 33.359375 -109.457031 33.796875 -110.332031 C 33.796875 -110.332031 33.796875 -110.332031 33.796875 -110.550781 C 34.015625 -111.640625 34.453125 -112.949219 34.667969 -114.039062 C 35.542969 -117.308594 36.414062 -120.359375 37.066406 -123.414062 C 37.503906 -124.503906 37.722656 -125.59375 37.941406 -126.683594 C 38.375 -128.429688 39.03125 -130.390625 39.464844 -132.136719 C 39.683594 -133.007812 39.683594 -133.660156 39.902344 -134.535156 C 40.339844 -135.84375 40.773438 -137.152344 40.992188 -138.457031 C 41.429688 -139.550781 41.648438 -140.640625 41.863281 -141.730469 C 42.082031 -142.820312 42.519531 -144.128906 42.738281 -145.21875 C 42.953125 -145.871094 43.171875 -146.527344 43.390625 -147.179688 C 43.609375 -148.054688 44.046875 -148.925781 44.261719 -149.796875 C 44.480469 -150.667969 44.699219 -151.324219 44.917969 -152.195312 C 44.699219 -152.195312 44.480469 -152.195312 44.261719 -152.195312 C 43.171875 -152.195312 42.300781 -152.195312 41.210938 -152.195312 C 40.121094 -152.195312 39.03125 -152.195312 37.941406 -152.195312 C 36.195312 -152.195312 34.667969 -152.195312 33.144531 -152.195312 C 32.925781 -152.195312 32.707031 -152.195312 32.488281 -152.195312 C 32.488281 -151.976562 32.488281 -151.542969 32.269531 -151.324219 C 31.835938 -149.144531 31.179688 -146.960938 30.527344 -144.78125 C 30.089844 -142.820312 29.4375 -140.859375 29 -138.894531 C 28.78125 -138.023438 28.347656 -137.152344 28.128906 -136.277344 C 27.472656 -133.878906 27.039062 -131.699219 26.382812 -129.300781 C 25.949219 -127.992188 25.730469 -126.683594 25.292969 -125.59375 C 25.074219 -124.285156 24.855469 -122.976562 24.421875 -121.886719 C 23.984375 -119.925781 23.550781 -118.179688 22.894531 -116.21875 C 22.457031 -114.257812 22.023438 -112.292969 21.367188 -110.332031 C 20.933594 -108.585938 20.496094 -107.058594 19.84375 -105.316406 C 19.84375 -105.535156 19.84375 -105.535156 19.84375 -105.535156 C 19.84375 -107.933594 19.84375 -110.113281 19.84375 -112.292969 C 19.625 -114.691406 19.84375 -117.308594 19.625 -119.925781 C 19.625 -120.578125 19.625 -121.453125 19.625 -122.105469 C 19.625 -124.503906 19.625 -126.683594 19.625 -129.082031 C 19.625 -129.957031 19.625 -131.046875 19.625 -131.917969 C 19.40625 -133.878906 19.625 -135.84375 19.625 -137.804688 C 19.625 -138.023438 19.625 -138.023438 19.625 -138.023438 C 19.84375 -138.675781 19.84375 -139.332031 19.84375 -139.984375 C 19.84375 -144.128906 19.84375 -148.054688 19.84375 -151.976562 C 19.84375 -152.195312 19.84375 -152.195312 19.84375 -152.414062 C 19.1875 -152.414062 18.75 -152.414062 18.316406 -152.414062 C 18.097656 -152.414062 17.878906 -152.414062 17.878906 -152.414062 C 17.660156 -152.414062 17.660156 -152.414062 17.445312 -152.414062 C 15.046875 -152.414062 12.429688 -152.414062 9.8125 -152.195312 C 9.59375 -152.195312 9.15625 -152.195312 8.941406 -152.195312 C 8.722656 -152.195312 8.503906 -152.195312 8.503906 -152.195312 C 8.285156 -151.976562 8.066406 -151.976562 8.066406 -151.976562 C 8.066406 -151.976562 8.066406 -151.757812 7.851562 -151.542969 C 7.851562 -148.707031 7.851562 -145.65625 7.851562 -142.820312 C 7.851562 -140.203125 7.851562 -137.804688 7.851562 -135.40625 C 7.851562 -130.828125 7.851562 -126.464844 7.851562 -122.105469 C 7.632812 -119.054688 7.632812 -116 7.851562 -112.949219 C 7.851562 -110.984375 7.851562 -109.023438 7.851562 -107.058594 C 8.066406 -105.535156 7.851562 -104.226562 7.851562 -102.917969 C 7.851562 -100.082031 8.066406 -97.25 7.851562 -94.632812 C 7.851562 -93.105469 7.851562 -91.578125 7.851562 -90.269531 C 7.851562 -86.78125 7.851562 -83.292969 7.851562 -80.023438 C 7.851562 -76.097656 7.851562 -72.390625 7.851562 -68.464844 C 7.851562 -67.375 7.851562 -66.066406 7.851562 -64.976562 C 7.851562 -64.757812 7.851562 -64.324219 7.851562 -63.886719 C 7.851562 -62.359375 7.632812 -60.617188 7.851562 -59.089844 C 7.851562 -57.78125 7.851562 -56.691406 7.851562 -55.601562 C 7.851562 -52.550781 8.066406 -49.714844 7.851562 -46.660156 C 7.851562 -44.480469 7.851562 -42.519531 7.851562 -40.339844 C 7.632812 -37.503906 7.851562 -34.453125 7.632812 -31.398438 C 7.632812 -28.5625 7.632812 -25.730469 7.632812 -22.894531 C 7.632812 -22.023438 7.632812 -21.152344 7.632812 -20.277344 C 7.632812 -17.660156 7.632812 -15.046875 7.632812 -12.429688 C 7.851562 -11.121094 7.851562 -9.59375 7.851562 -8.285156 C 7.851562 -7.632812 7.851562 -6.976562 7.851562 -6.324219 C 8.066406 -5.234375 8.066406 -4.144531 8.066406 -2.835938 C 8.066406 -2.617188 8.066406 -2.179688 8.066406 -1.960938 C 8.066406 -1.746094 8.066406 -1.746094 8.066406 -1.527344 C 8.066406 -0.871094 8.066406 -0.21875 8.066406 0.4375 C 8.722656 0.21875 9.15625 0.21875 9.59375 0.21875 C 12.648438 0.21875 15.699219 0.21875 18.96875 0.21875 C 18.96875 0.21875 19.1875 0.21875 19.40625 0.21875 C 19.40625 -0.21875 19.40625 -0.652344 19.625 -1.089844 C 19.625 -1.089844 19.625 -1.089844 19.625 -1.308594 C 19.625 -2.835938 19.625 -4.578125 19.625 -6.324219 C 19.84375 -9.375 19.625 -12.210938 19.625 -15.261719 C 19.84375 -19.84375 19.84375 -24.421875 19.625 -29 C 19.625 -32.707031 19.625 -36.632812 19.625 -40.339844 C 19.625 -42.300781 19.625 -44.046875 19.625 -45.789062 C 19.84375 -48.40625 19.84375 -50.804688 19.84375 -53.421875 C 19.84375 -55.820312 19.84375 -58.21875 19.84375 -60.617188 C 19.84375 -60.835938 19.84375 -60.835938 19.84375 -61.054688 C 19.84375 -61.054688 19.84375 -61.269531 19.84375 -61.269531 C 19.84375 -60.835938 20.058594 -60.398438 20.058594 -59.960938 C 20.277344 -59.308594 20.496094 -58.4375 20.496094 -57.5625 C 20.714844 -56.253906 21.152344 -54.949219 21.367188 -53.640625 C 21.585938 -52.332031 22.023438 -50.804688 22.242188 -49.277344 C 22.675781 -47.535156 22.894531 -45.570312 23.332031 -43.828125 C 23.765625 -42.082031 24.203125 -40.339844 24.640625 -38.8125 C 24.855469 -37.722656 25.074219 -36.632812 25.292969 -35.542969 C 25.511719 -34.667969 25.730469 -33.796875 25.730469 -32.707031 C 26.164062 -31.398438 26.382812 -30.308594 26.601562 -29 C 26.820312 -27.910156 27.039062 -26.601562 27.253906 -25.511719 C 27.472656 -25.074219 27.472656 -24.640625 27.691406 -23.984375 C 27.691406 -23.332031 27.910156 -22.457031 28.128906 -21.585938 C 28.347656 -20.058594 28.5625 -18.75 29 -17.226562 C 29.4375 -15.261719 29.871094 -13.519531 30.089844 -11.554688 C 30.308594 -10.683594 30.527344 -9.8125 30.746094 -8.941406 C 30.960938 -8.066406 31.179688 -7.195312 31.179688 -6.542969 C 31.398438 -5.449219 31.617188 -4.578125 31.835938 -3.707031 C 32.050781 -3.050781 32.050781 -2.398438 32.269531 -1.746094 C 32.488281 -1.089844 32.488281 -0.652344 32.707031 -0.21875 C 32.707031 0.21875 32.925781 0.4375 32.925781 0.652344 C 33.144531 0.652344 33.144531 0.652344 33.359375 0.652344 C 33.796875 0.652344 34.234375 0.652344 34.667969 0.4375 C 35.105469 0.4375 35.542969 0.4375 35.976562 0.4375 C 37.066406 0.4375 38.15625 0.4375 39.25 0.4375 C 39.683594 0.21875 40.339844 0.4375 40.773438 0.4375 C 42.082031 0.4375 43.390625 0.4375 44.480469 0.4375 Z M 44.480469 0.4375 "/></g></g></g><g fill="#db4a2b" fill-opacity="1"><g transform="translate(295.301455, 262.262259)"><g><path d="M 7.851562 -152.414062 C 7.851562 -152.414062 7.851562 -152.195312 7.851562 -152.195312 C 7.851562 -150.886719 7.851562 -149.359375 7.851562 -147.835938 C 7.632812 -146.960938 7.851562 -145.871094 7.632812 -144.78125 C 7.632812 -143.910156 7.632812 -143.039062 7.851562 -142.164062 C 7.851562 -141.949219 7.851562 -141.730469 7.851562 -141.511719 C 7.851562 -140.859375 7.632812 -140.203125 7.632812 -139.550781 C 7.632812 -139.113281 7.851562 -138.675781 7.632812 -138.457031 C 7.632812 -138.457031 7.632812 -138.242188 7.632812 -138.242188 C 7.851562 -137.585938 7.851562 -136.714844 7.851562 -136.058594 C 7.851562 -135.84375 7.851562 -135.84375 7.851562 -135.625 C 7.851562 -134.96875 7.851562 -134.316406 8.066406 -133.660156 C 8.066406 -132.789062 8.066406 -131.917969 8.066406 -131.046875 C 8.066406 -130.828125 8.066406 -130.828125 8.066406 -130.828125 C 8.066406 -130.171875 8.285156 -129.738281 8.285156 -129.082031 C 8.285156 -128.210938 8.285156 -127.558594 8.285156 -126.683594 C 8.285156 -125.59375 8.285156 -124.722656 8.285156 -123.632812 C 8.066406 -122.542969 8.066406 -121.234375 8.066406 -119.925781 C 8.066406 -117.527344 8.066406 -115.347656 8.066406 -112.949219 C 8.285156 -111.203125 8.285156 -109.457031 8.285156 -107.496094 C 8.285156 -102.917969 8.285156 -98.339844 8.285156 -93.757812 C 8.285156 -91.796875 8.285156 -89.835938 8.285156 -87.871094 C 8.285156 -84.382812 8.285156 -80.894531 8.285156 -77.40625 C 8.285156 -73.699219 8.285156 -69.773438 8.285156 -66.066406 C 8.066406 -64.324219 8.285156 -62.796875 8.066406 -61.269531 C 8.066406 -60.617188 8.066406 -59.960938 8.066406 -59.308594 C 8.066406 -58.871094 8.066406 -58.652344 8.066406 -58.21875 C 8.066406 -57.5625 7.851562 -56.910156 7.851562 -56.253906 C 7.851562 -55.382812 7.851562 -54.511719 7.851562 -53.640625 C 7.632812 -51.675781 7.851562 -49.933594 7.632812 -47.96875 C 7.632812 -44.917969 7.632812 -41.863281 7.632812 -39.03125 C 7.632812 -35.324219 7.632812 -31.835938 7.851562 -28.347656 C 7.851562 -27.472656 7.851562 -26.820312 7.851562 -25.949219 C 7.851562 -24.421875 7.851562 -23.113281 8.066406 -21.804688 C 8.066406 -20.714844 8.066406 -19.625 8.066406 -18.535156 C 8.066406 -17.445312 8.066406 -16.570312 8.066406 -15.699219 C 8.285156 -14.390625 8.066406 -13.082031 8.285156 -11.773438 C 8.285156 -10.683594 8.285156 -9.375 8.285156 -8.066406 C 8.285156 -6.542969 8.285156 -4.796875 8.285156 -3.269531 C 8.066406 -2.398438 8.066406 -1.746094 8.285156 -1.089844 C 8.285156 -0.4375 8.285156 0 8.285156 0.4375 C 8.941406 0.4375 9.8125 0.4375 10.464844 0.4375 C 10.683594 0.4375 10.902344 0.4375 11.339844 0.4375 C 11.773438 0.21875 12.210938 0.21875 12.863281 0.4375 C 13.519531 0.4375 14.390625 0.4375 15.046875 0.4375 C 15.261719 0.21875 15.480469 0.4375 15.699219 0.4375 C 16.136719 0.4375 16.351562 0.4375 16.570312 0.4375 C 17.226562 0.4375 17.660156 0.21875 18.316406 0.21875 C 19.625 0.21875 20.714844 0.21875 22.023438 0.21875 C 25.292969 0.21875 28.347656 0.21875 31.617188 0.21875 C 31.835938 0.21875 32.050781 0.21875 32.050781 0.21875 C 32.050781 -0.21875 32.050781 -0.652344 32.050781 -1.089844 C 32.050781 -2.617188 32.050781 -3.925781 32.050781 -5.449219 C 32.269531 -7.632812 32.050781 -9.59375 32.050781 -11.773438 C 32.050781 -12.210938 32.050781 -12.429688 32.050781 -12.648438 C 30.960938 -12.863281 30.089844 -12.863281 29 -12.863281 C 26.164062 -12.863281 23.332031 -12.863281 20.496094 -12.863281 C 20.496094 -12.863281 20.277344 -12.863281 20.277344 -12.863281 C 20.058594 -13.738281 20.058594 -14.609375 20.058594 -15.480469 C 20.058594 -17.660156 20.058594 -20.058594 20.058594 -22.242188 C 20.058594 -23.765625 20.058594 -25.292969 20.058594 -26.820312 C 19.84375 -27.472656 19.84375 -28.128906 19.84375 -29 C 19.84375 -31.398438 19.84375 -33.796875 19.84375 -36.414062 C 19.84375 -36.414062 19.84375 -36.632812 19.84375 -36.851562 C 20.058594 -37.285156 20.058594 -37.503906 20.058594 -37.941406 C 20.058594 -38.59375 20.058594 -39.25 20.058594 -39.902344 C 20.058594 -40.554688 20.277344 -41.210938 20.277344 -42.082031 C 20.277344 -43.390625 20.277344 -44.699219 20.277344 -46.007812 C 20.277344 -46.445312 20.277344 -46.878906 20.277344 -47.316406 C 20.277344 -54.511719 20.277344 -61.925781 20.277344 -69.121094 C 20.277344 -69.339844 20.277344 -69.554688 20.277344 -69.773438 C 21.367188 -69.773438 22.242188 -69.773438 23.113281 -69.773438 C 24.203125 -69.992188 25.074219 -69.773438 25.949219 -69.773438 C 27.039062 -69.773438 27.910156 -69.773438 28.78125 -69.773438 C 29.871094 -69.773438 30.746094 -69.773438 31.617188 -69.773438 C 31.617188 -69.992188 31.617188 -69.992188 31.617188 -69.992188 C 31.835938 -71.300781 31.835938 -72.609375 31.835938 -73.699219 C 31.835938 -76.097656 31.835938 -78.714844 31.835938 -81.113281 C 31.835938 -81.550781 31.835938 -81.984375 32.050781 -82.421875 C 32.050781 -82.421875 31.835938 -82.640625 31.835938 -82.640625 C 30.089844 -82.640625 28.5625 -82.640625 27.039062 -82.855469 C 25.074219 -82.855469 23.113281 -82.855469 20.933594 -82.855469 C 20.933594 -82.855469 20.714844 -82.855469 20.714844 -82.855469 C 20.714844 -83.292969 20.714844 -83.949219 20.714844 -84.382812 C 20.714844 -84.601562 20.714844 -85.039062 20.714844 -85.253906 C 20.714844 -86.347656 20.714844 -87.21875 20.714844 -88.308594 C 20.496094 -89.179688 20.714844 -90.054688 20.496094 -90.925781 C 20.496094 -92.015625 20.496094 -93.105469 20.496094 -94.195312 C 20.277344 -95.941406 20.496094 -97.683594 20.277344 -99.648438 C 20.277344 -101.171875 20.277344 -102.917969 20.277344 -104.445312 C 20.277344 -106.625 20.277344 -108.804688 20.277344 -110.984375 C 20.058594 -114.257812 20.058594 -117.527344 20.277344 -121.015625 C 20.277344 -123.851562 20.277344 -126.683594 20.277344 -129.519531 C 20.277344 -130.609375 20.277344 -131.480469 20.277344 -132.570312 C 20.058594 -133.878906 20.277344 -134.96875 20.058594 -136.058594 C 20.058594 -136.496094 20.058594 -136.933594 20.058594 -137.367188 C 20.058594 -137.585938 20.058594 -138.023438 20.058594 -138.457031 C 20.058594 -138.675781 20.058594 -139.113281 20.058594 -139.550781 C 20.058594 -139.550781 20.058594 -139.550781 20.277344 -139.550781 C 21.152344 -139.550781 22.023438 -139.765625 23.113281 -139.765625 C 23.984375 -139.765625 25.074219 -139.984375 26.164062 -139.984375 C 27.253906 -139.984375 28.347656 -139.984375 29.4375 -139.984375 C 30.089844 -140.203125 30.746094 -139.984375 31.398438 -139.984375 C 31.617188 -139.984375 31.835938 -139.984375 31.835938 -139.984375 C 31.835938 -140.203125 32.050781 -140.421875 32.050781 -140.640625 C 32.050781 -141.949219 31.835938 -143.257812 31.835938 -144.78125 C 31.835938 -147.179688 31.835938 -149.796875 31.835938 -152.414062 C 31.835938 -152.414062 31.835938 -152.632812 31.835938 -152.632812 C 31.835938 -152.632812 31.835938 -152.632812 31.617188 -152.632812 C 29.21875 -152.632812 27.039062 -152.851562 24.640625 -152.851562 C 23.984375 -152.851562 23.550781 -152.851562 23.113281 -152.851562 C 20.277344 -152.851562 17.660156 -152.851562 15.046875 -152.632812 C 14.171875 -152.632812 13.519531 -152.632812 12.648438 -152.414062 C 11.992188 -152.414062 11.121094 -152.414062 10.464844 -152.632812 C 10.03125 -152.632812 9.8125 -152.632812 9.375 -152.414062 C 8.941406 -152.414062 8.503906 -152.414062 7.851562 -152.414062 Z M 7.851562 -152.414062 "/></g></g></g><g fill="#db4a2b" fill-opacity="1"><g transform="translate(323.863582, 262.262259)"><g><path d="M 19.84375 -139.765625 C 19.84375 -139.550781 19.84375 -139.332031 19.84375 -139.113281 C 19.84375 -138.457031 19.84375 -137.585938 19.84375 -136.714844 C 19.84375 -132.136719 19.84375 -127.558594 19.84375 -122.976562 C 19.84375 -119.269531 19.84375 -115.347656 19.84375 -111.640625 C 19.84375 -109.675781 19.84375 -107.933594 19.84375 -106.1875 C 19.625 -104.226562 19.84375 -102.261719 19.84375 -100.300781 C 19.84375 -97.464844 19.84375 -94.632812 19.84375 -91.796875 C 19.84375 -90.488281 19.84375 -88.960938 19.84375 -87.65625 C 19.84375 -83.730469 19.84375 -79.804688 19.84375 -75.660156 C 19.84375 -74.570312 19.84375 -73.261719 19.84375 -71.953125 C 19.84375 -69.339844 19.84375 -66.722656 19.84375 -64.105469 C 19.84375 -63.015625 20.058594 -61.925781 20.058594 -60.835938 C 20.058594 -59.527344 19.84375 -58 19.84375 -56.472656 C 19.625 -55.382812 19.625 -54.074219 19.625 -52.984375 C 19.625 -48.625 19.625 -44.261719 19.84375 -39.902344 C 19.84375 -37.285156 19.625 -34.667969 19.84375 -32.050781 C 19.84375 -31.398438 19.84375 -30.527344 19.84375 -29.871094 C 19.84375 -27.472656 19.84375 -25.292969 19.84375 -22.894531 C 20.058594 -22.023438 19.84375 -21.152344 20.058594 -20.277344 C 20.058594 -18.316406 19.84375 -16.136719 19.84375 -14.171875 C 19.84375 -13.953125 19.84375 -13.953125 19.84375 -13.953125 C 19.84375 -13.082031 19.625 -12.429688 19.625 -11.554688 C 19.625 -7.851562 19.625 -3.925781 19.625 0 C 19.625 0.21875 19.625 0.21875 19.625 0.4375 C 19.84375 0.4375 19.84375 0.4375 19.84375 0.4375 C 20.933594 0.4375 22.242188 0.4375 23.332031 0.4375 C 24.640625 0.4375 25.949219 0.4375 27.039062 0.4375 C 28.5625 0.21875 29.871094 0.21875 31.398438 0.21875 C 31.398438 0.21875 31.398438 0.21875 31.617188 0.21875 C 31.617188 0.21875 31.617188 0.21875 31.617188 0 C 31.617188 -3.050781 31.617188 -6.105469 31.617188 -9.15625 C 31.617188 -10.683594 31.617188 -12.210938 31.617188 -13.519531 C 31.617188 -18.96875 31.617188 -24.640625 31.835938 -30.089844 C 31.835938 -32.925781 31.835938 -35.976562 31.617188 -39.03125 C 31.617188 -40.992188 31.617188 -42.953125 31.617188 -44.917969 C 31.617188 -46.660156 31.617188 -48.625 31.617188 -50.367188 C 31.617188 -52.765625 31.617188 -54.949219 31.617188 -57.347656 C 31.835938 -58.871094 31.835938 -60.179688 31.835938 -61.707031 C 31.835938 -65.195312 31.835938 -68.683594 31.617188 -71.953125 C 31.617188 -75.878906 31.617188 -79.585938 31.617188 -83.292969 C 31.617188 -84.601562 31.835938 -85.691406 31.835938 -87 C 31.835938 -87.21875 31.835938 -87.65625 31.835938 -88.089844 C 31.835938 -89.617188 31.835938 -91.359375 31.617188 -92.886719 C 31.617188 -93.976562 31.617188 -95.066406 31.617188 -96.15625 C 31.617188 -99.210938 31.617188 -102.261719 31.617188 -105.316406 C 31.835938 -107.496094 31.617188 -109.457031 31.835938 -111.640625 C 31.835938 -114.691406 31.835938 -117.527344 31.835938 -120.578125 C 31.835938 -123.414062 31.835938 -126.25 31.835938 -129.082031 C 32.050781 -129.957031 31.835938 -130.828125 31.835938 -131.699219 C 31.835938 -133.878906 31.835938 -136.058594 31.835938 -138.242188 C 31.835938 -138.457031 31.835938 -138.894531 31.835938 -139.113281 C 31.835938 -139.113281 31.835938 -139.332031 31.835938 -139.550781 C 31.835938 -139.550781 32.050781 -139.550781 32.050781 -139.550781 C 32.707031 -139.550781 33.359375 -139.550781 34.234375 -139.550781 C 35.324219 -139.550781 36.414062 -139.765625 37.503906 -139.765625 C 38.15625 -139.765625 38.8125 -139.765625 39.464844 -139.765625 C 39.683594 -139.765625 39.683594 -139.765625 39.902344 -139.765625 C 40.339844 -139.765625 40.773438 -139.765625 41.210938 -139.765625 C 41.648438 -139.984375 42.082031 -139.984375 42.300781 -139.984375 C 42.738281 -139.984375 42.953125 -139.984375 43.171875 -140.203125 C 43.390625 -140.421875 43.390625 -140.859375 43.390625 -141.292969 C 43.390625 -144.128906 43.390625 -146.960938 43.390625 -149.796875 C 43.609375 -150.667969 43.390625 -151.324219 43.390625 -152.195312 C 43.390625 -152.195312 43.390625 -152.195312 43.390625 -152.414062 C 43.171875 -152.414062 43.171875 -152.414062 42.953125 -152.414062 C 41.863281 -152.414062 40.992188 -152.414062 39.902344 -152.414062 C 37.503906 -152.195312 35.105469 -152.195312 32.707031 -152.414062 C 29 -152.414062 25.074219 -152.195312 21.367188 -152.414062 C 19.84375 -152.414062 18.535156 -152.414062 17.007812 -152.414062 C 16.136719 -152.195312 15.261719 -152.414062 14.171875 -152.414062 C 13.519531 -152.414062 12.648438 -152.414062 11.773438 -152.414062 C 11.554688 -152.414062 11.339844 -152.414062 10.902344 -152.414062 C 10.464844 -152.414062 9.8125 -152.414062 9.375 -152.414062 C 8.722656 -152.195312 8.285156 -152.414062 7.851562 -152.414062 C 7.851562 -151.757812 7.632812 -151.105469 7.632812 -150.667969 C 7.632812 -148.925781 7.632812 -147.398438 7.632812 -145.65625 C 7.851562 -144.347656 7.851562 -143.039062 7.851562 -141.730469 C 7.851562 -141.292969 7.851562 -140.859375 8.066406 -140.421875 C 8.066406 -140.203125 8.066406 -139.765625 8.066406 -139.550781 C 8.285156 -139.550781 8.285156 -139.550781 8.285156 -139.550781 C 9.15625 -139.550781 10.03125 -139.765625 10.902344 -139.765625 C 13.738281 -139.765625 16.789062 -139.765625 19.625 -139.765625 C 19.625 -139.765625 19.84375 -139.765625 19.84375 -139.765625 Z M 19.84375 -139.765625 "/></g></g></g></svg>