<svg xmlns="http://www.w3.org/2000/svg" xmlns:xlink="http://www.w3.org/1999/xlink" width="500" zoomAndPan="magnify" viewBox="0 0 375 374.999991" height="500" preserveAspectRatio="xMidYMid meet" version="1.0"><defs><g/><clipPath id="f1f0dc9ae2"><path d="M 67.597656 91.046875 L 307.597656 91.046875 L 307.597656 223.046875 L 67.597656 223.046875 Z M 67.597656 91.046875 " clip-rule="nonzero"/></clipPath></defs><g clip-path="url(#f1f0dc9ae2)"><path fill="#ffad00" d="M 284.664062 91.046875 L 89.921875 91.046875 C 89.921875 100.667969 80.339844 108.320312 68.152344 108.320312 L 68.152344 108.59375 L 67.960938 108.59375 C 67.957031 109.570312 67.945312 110.207031 67.953125 111.066406 C 67.953125 111.167969 68.058594 111.273438 68.160156 111.300781 C 70.472656 111.878906 71.535156 113.277344 72.109375 115.003906 C 72.601562 116.480469 72.519531 117.949219 71.855469 119.390625 C 71.164062 120.886719 70.023438 122.039062 67.945312 122.484375 C 67.945312 123.144531 67.933594 123.800781 67.957031 124.457031 C 67.960938 124.550781 68.089844 124.695312 68.203125 124.722656 C 70.519531 125.304688 71.59375 126.742188 72.113281 128.472656 C 72.773438 130.664062 72.417969 132.75 70.621094 134.582031 C 70.019531 135.195312 69.234375 135.613281 68.300781 135.863281 C 68.152344 135.902344 67.96875 136.074219 67.960938 136.191406 C 67.925781 136.75 67.929688 137.308594 67.953125 137.867188 C 67.960938 137.972656 68.085938 138.144531 68.199219 138.171875 C 70.164062 138.648438 71.261719 139.808594 71.867188 141.269531 C 72.851562 143.65625 72.597656 145.941406 70.65625 148.003906 C 70.058594 148.636719 69.265625 149.074219 68.300781 149.308594 C 68.164062 149.34375 67.964844 149.46875 67.960938 149.558594 C 67.933594 150.230469 67.945312 150.902344 67.945312 151.574219 C 70.019531 152.003906 71.160156 153.160156 71.835938 154.640625 C 72.644531 156.402344 72.71875 158.183594 71.851562 159.941406 C 71.152344 161.355469 70.101562 162.433594 68.152344 162.84375 L 68.152344 164.992188 C 68.640625 165.160156 69.019531 165.289062 69.453125 165.507812 C 70.941406 166.25 71.695312 167.390625 72.121094 168.703125 C 72.726562 170.566406 72.613281 172.378906 71.46875 174.089844 C 70.734375 175.183594 69.613281 175.988281 68.152344 176.292969 L 68.152344 178.464844 C 71.078125 179.304688 72.210938 181.265625 72.457031 183.597656 C 72.648438 185.414062 72.070312 187.109375 70.539062 188.53125 C 69.949219 189.078125 69.207031 189.476562 68.335938 189.671875 C 68.058594 189.734375 67.941406 189.816406 67.949219 190.046875 C 67.964844 190.59375 67.9375 191.140625 67.960938 191.683594 C 67.964844 191.796875 68.074219 191.976562 68.179688 192 C 70.050781 192.4375 71.144531 193.511719 71.765625 194.882812 C 72.886719 197.359375 72.746094 199.738281 70.6875 201.890625 C 70.035156 202.570312 69.128906 203 68.152344 203.207031 L 68.152344 206.09375 C 80.339844 206.09375 89.917969 213.890625 89.917969 223.152344 L 284.664062 223.152344 C 284.664062 213.890625 294.339844 206.09375 307.015625 206.09375 L 307.015625 203.242188 C 304.089844 202.5625 302.882812 200.84375 302.492188 198.742188 C 302.089844 196.601562 302.453125 194.578125 304.457031 192.972656 C 304.96875 192.5625 305.652344 192.316406 306.316406 192.046875 C 306.558594 191.949219 306.671875 191.898438 306.664062 191.664062 C 306.644531 191.121094 306.65625 190.574219 306.632812 190.027344 C 306.628906 189.917969 306.503906 189.742188 306.394531 189.714844 C 304.4375 189.257812 303.328125 188.113281 302.722656 186.675781 C 301.703125 184.265625 301.941406 181.949219 303.921875 179.863281 C 304.519531 179.230469 305.316406 178.792969 306.285156 178.566406 C 306.425781 178.53125 306.609375 178.375 306.617188 178.269531 C 306.644531 177.625 306.628906 176.980469 306.628906 176.308594 C 305.15625 176.035156 304.121094 175.320312 303.367188 174.328125 C 302.402344 173.058594 302.078125 171.664062 302.175781 170.199219 C 302.242188 169.257812 302.710938 168.359375 303.234375 167.507812 C 303.992188 166.28125 305.066406 165.367188 307.015625 165.035156 L 307.015625 162.875 C 304.089844 162.132812 302.820312 160.324219 302.433594 158.144531 C 302.1875 156.742188 302.328125 155.367188 303.117188 154.074219 C 303.867188 152.847656 304.90625 151.921875 306.679688 151.578125 C 306.679688 150.902344 306.664062 150.230469 306.644531 149.558594 C 306.640625 149.480469 306.492188 149.359375 306.390625 149.332031 C 304.308594 148.835938 303.210938 147.589844 302.617188 146.050781 C 301.777344 143.875 302.007812 141.765625 303.605469 139.820312 C 304.257812 139.03125 305.148438 138.476562 306.296875 138.179688 C 306.4375 138.144531 306.609375 137.960938 306.617188 137.839844 C 306.652344 137.296875 306.644531 136.75 306.621094 136.207031 C 306.617188 136.09375 306.503906 135.910156 306.394531 135.886719 C 304.164062 135.335938 303.066406 133.980469 302.511719 132.316406 C 301.792969 130.167969 302.074219 128.101562 303.71875 126.238281 C 304.355469 125.511719 305.203125 124.996094 306.28125 124.734375 C 306.421875 124.699219 306.613281 124.542969 306.617188 124.4375 C 306.648438 123.796875 306.632812 123.152344 306.632812 122.476562 C 305.140625 122.195312 304.09375 121.46875 303.339844 120.457031 C 302.398438 119.195312 302.066406 117.816406 302.179688 116.363281 C 302.308594 114.773438 303.0625 113.300781 304.578125 112.195312 C 305.199219 111.742188 306.042969 111.449219 307.015625 111.027344 L 307.015625 108.320312 C 294.34375 108.320312 284.664062 100.667969 284.664062 91.046875 Z M 284.664062 91.046875 " fill-opacity="1" fill-rule="nonzero"/></g><path fill="#ffad00" d="M 137.730469 153.863281 L 144.691406 121.644531 L 150.457031 121.644531 L 157.402344 153.863281 L 150.976562 153.863281 L 149.652344 146.972656 L 145.445312 146.972656 L 144.191406 153.863281 Z M 145.890625 142.960938 L 149.222656 142.960938 L 147.59375 131.003906 Z M 160.394531 153.863281 L 160.394531 121.644531 L 167.125 121.644531 C 169.273438 121.644531 171.042969 121.835938 172.429688 122.226562 C 173.820312 122.613281 174.914062 123.25 175.707031 124.140625 C 176.5 125.03125 177.050781 126.09375 177.351562 127.335938 C 177.65625 128.578125 177.808594 130.15625 177.808594 132.078125 L 177.808594 142.640625 C 177.808594 143.785156 177.773438 144.785156 177.703125 145.636719 C 177.632812 146.488281 177.496094 147.324219 177.300781 148.144531 C 177.101562 148.960938 176.835938 149.652344 176.496094 150.21875 C 176.152344 150.785156 175.714844 151.3125 175.179688 151.804688 C 174.640625 152.292969 173.992188 152.679688 173.238281 152.964844 C 172.480469 153.253906 171.589844 153.472656 170.570312 153.628906 C 169.550781 153.785156 168.375 153.863281 167.054688 153.863281 Z M 167.160156 149.296875 C 167.78125 149.296875 168.269531 149.289062 168.628906 149.269531 C 168.984375 149.253906 169.34375 149.207031 169.703125 149.136719 C 170.058594 149.066406 170.320312 148.964844 170.488281 148.839844 C 170.65625 148.714844 170.8125 148.535156 170.953125 148.296875 C 171.097656 148.054688 171.191406 147.773438 171.230469 147.445312 C 171.273438 147.117188 171.292969 146.707031 171.292969 146.21875 L 171.292969 128.875 C 171.292969 127.8125 170.976562 127.109375 170.347656 126.761719 C 169.714844 126.417969 168.652344 126.238281 167.160156 126.226562 Z M 182.144531 153.863281 L 182.144531 121.644531 L 189.949219 121.644531 L 193.386719 143.121094 L 197.089844 121.644531 L 204.625 121.644531 L 204.625 153.863281 L 199.828125 153.863281 L 199.6875 131.203125 C 199.328125 133.527344 198.703125 137.304688 197.808594 142.53125 C 196.910156 147.757812 196.285156 151.535156 195.929688 153.863281 L 191.058594 153.863281 L 187.105469 131.058594 L 186.960938 153.863281 Z M 209.371094 153.863281 L 209.371094 121.644531 L 215.886719 121.644531 L 215.886719 153.863281 Z M 223.695312 153.863281 L 223.695312 126.511719 L 218.972656 126.511719 L 218.972656 121.644531 L 234.847656 121.644531 L 234.847656 126.511719 L 230.210938 126.511719 L 230.210938 153.863281 Z M 157.609375 187.253906 L 157.609375 176.425781 C 157.609375 168.8125 160.75 165.003906 167.023438 165.003906 C 173.3125 165.003906 176.457031 168.8125 176.457031 176.425781 L 176.457031 187.09375 C 176.457031 188.382812 176.363281 189.574219 176.171875 190.664062 C 175.980469 191.757812 175.65625 192.789062 175.195312 193.769531 C 174.738281 194.75 174.152344 195.582031 173.441406 196.265625 C 172.730469 196.953125 171.832031 197.492188 170.746094 197.886719 C 169.660156 198.277344 168.421875 198.476562 167.023438 198.476562 C 165.640625 198.476562 164.40625 198.28125 163.320312 197.894531 C 162.234375 197.507812 161.339844 196.980469 160.632812 196.320312 C 159.929688 195.660156 159.347656 194.847656 158.890625 193.886719 C 158.429688 192.925781 158.101562 191.902344 157.90625 190.816406 C 157.707031 189.730469 157.609375 188.542969 157.609375 187.253906 Z M 169.941406 188.722656 L 169.941406 174.796875 C 169.941406 171.621094 168.96875 170.035156 167.023438 170.035156 C 166.441406 170.035156 165.945312 170.183594 165.539062 170.472656 C 165.132812 170.765625 164.835938 171.164062 164.644531 171.671875 C 164.453125 172.179688 164.320312 172.679688 164.242188 173.175781 C 164.164062 173.671875 164.125 174.210938 164.125 174.796875 L 164.125 188.722656 C 164.125 191.882812 165.089844 193.464844 167.023438 193.464844 C 168.96875 193.464844 169.941406 191.882812 169.941406 188.722656 Z M 180.792969 197.851562 L 180.792969 165.613281 L 185.484375 165.613281 L 192.554688 182.476562 L 192.554688 165.613281 L 197.957031 165.613281 L 197.957031 197.851562 L 193.449219 197.851562 L 186.394531 179.96875 L 186.394531 197.851562 Z M 202.707031 197.851562 L 202.707031 165.632812 L 216.148438 165.632812 L 216.148438 170.105469 L 209.21875 170.105469 L 209.21875 178.878906 L 214.125 178.878906 L 214.125 183.460938 L 209.21875 183.460938 L 209.21875 193.375 L 216.148438 193.375 L 216.148438 197.851562 Z M 275.167969 129.671875 C 275.789062 128.957031 276.324219 128.191406 276.324219 127.199219 C 276.324219 124.398438 272.761719 124.214844 270.703125 124.144531 C 271.488281 125.070312 271.953125 125.996094 271.953125 127.222656 C 271.953125 130.136719 269.546875 131.199219 267.003906 131.199219 C 264.25 131.199219 261.9375 129.71875 261.9375 126.757812 C 261.9375 122.78125 266.75 122.527344 269.6875 122.527344 C 272.832031 122.527344 277.78125 122.921875 277.78125 127.128906 C 277.78125 128.402344 277.292969 129.625 276.4375 130.550781 Z M 263.394531 126.875 C 263.394531 128.769531 265.058594 129.582031 266.933594 129.582031 C 268.691406 129.582031 270.496094 129.046875 270.496094 126.992188 C 270.496094 125.878906 269.730469 124.933594 268.992188 124.144531 C 264.15625 124.167969 263.394531 125.464844 263.394531 126.875 Z M 269.847656 143.292969 C 267.371094 143.292969 261.9375 143.710938 261.9375 138.992188 C 261.9375 134.277344 267.1875 134.691406 269.847656 134.691406 C 273.476562 134.691406 277.78125 134.507812 277.78125 138.992188 C 277.78125 143.894531 271.582031 143.292969 269.847656 143.292969 Z M 269.847656 136.308594 C 263.789062 136.308594 263.394531 137.421875 263.394531 138.992188 C 263.394531 140.773438 264.113281 141.675781 269.847656 141.675781 C 275.8125 141.675781 276.324219 140.636719 276.324219 138.992188 C 276.324219 136.078125 272.921875 136.308594 269.847656 136.308594 Z M 266.007812 146.738281 L 277.871094 149.03125 L 277.457031 150.578125 L 267.394531 148.589844 L 267.394531 152.777344 L 275.234375 152.777344 L 275.234375 154.324219 L 267.394531 154.324219 L 267.394531 155.550781 L 266.007812 155.550781 L 266.007812 154.324219 L 262.144531 154.324219 L 262.144531 152.777344 L 266.007812 152.777344 Z M 276.183594 166.027344 L 276.183594 159.667969 L 277.570312 159.667969 L 277.570312 168.269531 L 261.847656 161.261719 L 262.46875 159.875 Z M 275.167969 178.238281 C 275.792969 177.519531 276.324219 176.757812 276.324219 175.761719 C 276.324219 172.964844 272.761719 172.78125 270.703125 172.710938 C 271.488281 173.636719 271.953125 174.5625 271.953125 175.785156 C 271.953125 178.699219 269.546875 179.765625 267.003906 179.765625 C 264.25 179.765625 261.9375 178.285156 261.9375 175.324219 C 261.9375 171.347656 266.75 171.089844 269.6875 171.089844 C 272.832031 171.089844 277.78125 171.484375 277.78125 175.695312 C 277.78125 176.964844 277.292969 178.191406 276.4375 179.117188 Z M 263.394531 175.441406 C 263.394531 177.335938 265.058594 178.144531 266.933594 178.144531 C 268.691406 178.144531 270.496094 177.613281 270.496094 175.554688 C 270.496094 174.445312 269.734375 173.496094 268.992188 172.710938 C 264.160156 172.734375 263.394531 174.027344 263.394531 175.441406 Z M 269.847656 191.859375 C 267.375 191.859375 261.9375 192.273438 261.9375 187.558594 C 261.9375 182.839844 267.1875 183.257812 269.847656 183.257812 C 273.480469 183.257812 277.78125 183.070312 277.78125 187.558594 C 277.78125 192.460938 271.582031 191.859375 269.847656 191.859375 Z M 269.847656 184.875 C 263.789062 184.875 263.394531 185.984375 263.394531 187.558594 C 263.394531 189.335938 264.113281 190.238281 269.847656 190.238281 C 275.8125 190.238281 276.324219 189.199219 276.324219 187.558594 C 276.324219 184.644531 272.921875 184.875 269.847656 184.875 Z M 110.375 129.671875 C 111 128.957031 111.53125 128.191406 111.53125 127.199219 C 111.53125 124.398438 107.96875 124.214844 105.910156 124.144531 C 106.699219 125.070312 107.160156 125.996094 107.160156 127.222656 C 107.160156 130.136719 104.753906 131.199219 102.210938 131.199219 C 99.460938 131.199219 97.148438 129.71875 97.148438 126.757812 C 97.148438 122.78125 101.957031 122.527344 104.894531 122.527344 C 108.039062 122.527344 112.988281 122.921875 112.988281 127.128906 C 112.988281 128.402344 112.503906 129.625 111.648438 130.550781 Z M 98.605469 126.875 C 98.605469 128.769531 100.269531 129.582031 102.140625 129.582031 C 103.898438 129.582031 105.703125 129.046875 105.703125 126.992188 C 105.703125 125.878906 104.941406 124.933594 104.199219 124.144531 C 99.367188 124.167969 98.605469 125.464844 98.605469 126.875 Z M 105.054688 143.292969 C 102.582031 143.292969 97.148438 143.710938 97.148438 138.992188 C 97.148438 134.277344 102.398438 134.691406 105.054688 134.691406 C 108.6875 134.691406 112.988281 134.507812 112.988281 138.992188 C 112.988281 143.894531 106.789062 143.292969 105.054688 143.292969 Z M 105.054688 136.308594 C 98.996094 136.308594 98.605469 137.421875 98.605469 138.992188 C 98.605469 140.773438 99.320312 141.675781 105.054688 141.675781 C 111.023438 141.675781 111.53125 140.636719 111.53125 138.992188 C 111.53125 136.078125 108.132812 136.308594 105.054688 136.308594 Z M 101.21875 146.738281 L 113.082031 149.03125 L 112.664062 150.578125 L 102.605469 148.589844 L 102.605469 152.777344 L 110.445312 152.777344 L 110.445312 154.324219 L 102.605469 154.324219 L 102.605469 155.550781 L 101.21875 155.550781 L 101.21875 154.324219 L 97.355469 154.324219 L 97.355469 152.777344 L 101.21875 152.777344 Z M 111.394531 166.027344 L 111.394531 159.667969 L 112.78125 159.667969 L 112.78125 168.269531 L 97.054688 161.261719 L 97.679688 159.875 Z M 110.375 178.238281 C 111 177.519531 111.53125 176.757812 111.53125 175.761719 C 111.53125 172.964844 107.96875 172.78125 105.914062 172.710938 C 106.699219 173.636719 107.160156 174.5625 107.160156 175.785156 C 107.160156 178.699219 104.757812 179.765625 102.210938 179.765625 C 99.460938 179.765625 97.148438 178.285156 97.148438 175.324219 C 97.148438 171.347656 101.957031 171.089844 104.894531 171.089844 C 108.039062 171.089844 112.988281 171.484375 112.988281 175.695312 C 112.988281 176.964844 112.503906 178.191406 111.648438 179.117188 Z M 98.605469 175.441406 C 98.605469 177.335938 100.269531 178.144531 102.140625 178.144531 C 103.898438 178.144531 105.703125 177.613281 105.703125 175.554688 C 105.703125 174.445312 104.941406 173.496094 104.199219 172.710938 C 99.367188 172.734375 98.605469 174.027344 98.605469 175.441406 Z M 105.058594 191.859375 C 102.582031 191.859375 97.148438 192.273438 97.148438 187.558594 C 97.148438 182.839844 102.398438 183.257812 105.058594 183.257812 C 108.6875 183.257812 112.988281 183.070312 112.988281 187.558594 C 112.988281 192.460938 106.789062 191.859375 105.058594 191.859375 Z M 105.058594 184.875 C 99 184.875 98.605469 185.984375 98.605469 187.558594 C 98.605469 189.335938 99.320312 190.238281 105.058594 190.238281 C 111.023438 190.238281 111.53125 189.199219 111.53125 187.558594 C 111.53125 184.644531 108.132812 184.875 105.058594 184.875 Z M 278.597656 207.160156 L 94.390625 207.160156 C 91.621094 207.160156 89.371094 204.910156 89.371094 202.140625 L 89.371094 113.78125 C 89.371094 111.011719 91.621094 108.757812 94.390625 108.757812 L 278.59375 108.757812 C 281.363281 108.757812 283.617188 111.011719 283.617188 113.78125 L 283.617188 202.140625 C 283.617188 204.910156 281.363281 207.160156 278.597656 207.160156 Z M 94.390625 110.203125 C 92.417969 110.203125 90.8125 111.804688 90.8125 113.78125 L 90.8125 202.140625 C 90.8125 204.113281 92.417969 205.71875 94.390625 205.71875 L 278.59375 205.71875 C 280.570312 205.71875 282.171875 204.113281 282.171875 202.140625 L 282.171875 113.78125 C 282.171875 111.808594 280.570312 110.203125 278.59375 110.203125 Z M 256.519531 207.160156 L 118.066406 207.160156 L 118.066406 108.757812 L 256.519531 108.757812 Z M 119.511719 205.71875 L 255.074219 205.71875 L 255.074219 110.203125 L 119.511719 110.203125 Z M 129.296875 119.503906 L 125.992188 119.503906 L 128.667969 121.449219 L 127.644531 124.59375 L 130.320312 122.652344 L 132.992188 124.59375 L 131.972656 121.449219 L 134.648438 119.503906 L 131.339844 119.503906 L 130.320312 116.363281 Z M 245.101562 119.503906 L 241.796875 119.503906 L 244.472656 121.449219 L 243.449219 124.59375 L 246.125 122.652344 L 248.800781 124.59375 L 247.777344 121.449219 L 250.453125 119.503906 L 247.144531 119.503906 L 246.125 116.363281 Z M 130.320312 200.277344 L 131.339844 197.132812 L 134.648438 197.132812 L 131.972656 195.191406 L 132.992188 192.046875 L 130.320312 193.988281 L 127.644531 192.046875 L 128.667969 195.191406 L 125.992188 197.132812 L 129.296875 197.132812 Z M 246.125 200.277344 L 247.148438 197.132812 L 250.453125 197.132812 L 247.777344 195.191406 L 248.800781 192.046875 L 246.125 193.988281 L 243.449219 192.046875 L 244.472656 195.191406 L 241.796875 197.132812 L 245.101562 197.132812 Z M 246.125 200.277344 " fill-opacity="1" fill-rule="nonzero"/><g fill="#b92528" fill-opacity="1"><g transform="translate(78.497986, 176.588396)"><g><path d="M 10.625 0 L 2.125 0 L 2.125 -34.109375 L 10.09375 -34.109375 L 15.5625 -15.890625 L 15.5625 -34.109375 L 24.078125 -34.109375 L 24.078125 0 L 16.109375 0 L 10.625 -17.90625 Z M 10.625 0 "/></g></g></g><g fill="#b92528" fill-opacity="1"><g transform="translate(104.69826, 176.588396)"><g><path d="M 11.421875 -13.875 L 11.421875 -6.640625 L 20.9375 -6.640625 L 20.9375 0 L 2.125 0 L 2.125 -34.109375 L 20.453125 -34.109375 L 20.453125 -27.46875 L 11.421875 -27.46875 L 11.421875 -20.515625 L 18.921875 -20.515625 L 18.921875 -13.875 Z M 11.421875 -13.875 "/></g></g></g><g fill="#b92528" fill-opacity="1"><g transform="translate(126.434389, 176.588396)"><g><path d="M 11.421875 -34.109375 L 11.421875 -6.640625 L 19.875 -6.640625 L 19.875 0 L 2.125 0 L 2.125 -34.109375 Z M 11.421875 -34.109375 "/></g></g></g><g fill="#b92528" fill-opacity="1"><g transform="translate(146.310463, 176.588396)"><g><path d="M 25.671875 0 L 16.3125 0 L 15.515625 -5.09375 L 9.984375 -5.09375 L 9.140625 0 L 0 0 L 7.703125 -34.109375 L 17.96875 -34.109375 Z M 12.8125 -22.484375 L 11.046875 -11.6875 L 14.5 -11.6875 Z M 12.8125 -22.484375 "/></g></g></g><g fill="#b92528" fill-opacity="1"><g transform="translate(171.979296, 176.588396)"><g><path d="M 19.5 -34.109375 L 19.5 -27.46875 L 14.5 -27.46875 L 14.5 0 L 5.203125 0 L 5.203125 -27.46875 L 0.265625 -27.46875 L 0.265625 -34.109375 Z M 19.5 -34.109375 "/></g></g></g><g fill="#b92528" fill-opacity="1"><g transform="translate(191.749078, 176.588396)"><g><path d="M 11.421875 0 L 2.125 0 L 2.125 -34.109375 L 11.421875 -34.109375 Z M 11.421875 0 "/></g></g></g><g fill="#b92528" fill-opacity="1"><g transform="translate(205.300942, 176.588396)"><g><path d="M 23.375 -21.359375 L 14.078125 -21.359375 L 14.078125 -26.84375 C 14.078125 -27.613281 13.722656 -28 13.015625 -28 L 12.21875 -28 C 11.507812 -28 11.15625 -27.613281 11.15625 -26.84375 L 11.15625 -7.28125 C 11.15625 -6.5 11.507812 -6.109375 12.21875 -6.109375 L 13.015625 -6.109375 C 13.722656 -6.109375 14.078125 -6.5 14.078125 -7.28125 L 14.078125 -12.546875 L 23.375 -12.546875 L 23.375 -6.59375 C 23.375 -2.195312 20.769531 0 15.5625 0 L 9.671875 0 C 4.460938 0 1.859375 -2.195312 1.859375 -6.59375 L 1.859375 -27.53125 C 1.859375 -31.914062 4.460938 -34.109375 9.671875 -34.109375 L 15.5625 -34.109375 C 20.769531 -34.109375 23.375 -31.914062 23.375 -27.53125 Z M 23.375 -21.359375 "/></g></g></g><g fill="#b92528" fill-opacity="1"><g transform="translate(230.013163, 176.588396)"><g><path d="M 11.421875 0 L 2.125 0 L 2.125 -34.109375 L 11.421875 -34.109375 Z M 24.65625 0 L 14.671875 0 L 11.484375 -17.4375 L 14.609375 -34.109375 L 24.609375 -34.109375 L 20.09375 -17.4375 Z M 24.65625 0 "/></g></g></g><g fill="#b92528" fill-opacity="1"><g transform="translate(254.991117, 176.588396)"><g><path d="M 11.421875 -13.875 L 11.421875 -6.640625 L 20.9375 -6.640625 L 20.9375 0 L 2.125 0 L 2.125 -34.109375 L 20.453125 -34.109375 L 20.453125 -27.46875 L 11.421875 -27.46875 L 11.421875 -20.515625 L 18.921875 -20.515625 L 18.921875 -13.875 Z M 11.421875 -13.875 "/></g></g></g><g fill="#b92528" fill-opacity="1"><g transform="translate(276.727245, 176.588396)"><g><path d="M 19.5 -34.109375 L 19.5 -27.46875 L 14.5 -27.46875 L 14.5 0 L 5.203125 0 L 5.203125 -27.46875 L 0.265625 -27.46875 L 0.265625 -34.109375 Z M 19.5 -34.109375 "/></g></g></g><g fill="#ffad00" fill-opacity="1"><g transform="translate(98.195286, 242.463118)"><g><path d="M 3.953125 0.03125 C 3.523438 0.03125 3.3125 -0.09375 3.3125 -0.34375 L 3.3125 -5.328125 L 0.453125 -11.21875 C 0.378906 -11.351562 0.34375 -11.453125 0.34375 -11.515625 C 0.34375 -11.703125 0.578125 -11.796875 1.046875 -11.796875 L 1.34375 -11.796875 C 1.53125 -11.796875 1.675781 -11.78125 1.78125 -11.75 C 1.882812 -11.71875 1.957031 -11.648438 2 -11.546875 L 4.125 -6.8125 L 6.25 -11.5625 C 6.289062 -11.65625 6.367188 -11.71875 6.484375 -11.75 C 6.597656 -11.78125 6.742188 -11.796875 6.921875 -11.796875 L 7.15625 -11.796875 C 7.382812 -11.785156 7.546875 -11.757812 7.640625 -11.71875 C 7.742188 -11.675781 7.796875 -11.609375 7.796875 -11.515625 C 7.796875 -11.441406 7.765625 -11.34375 7.703125 -11.21875 L 4.828125 -5.28125 L 4.828125 -0.34375 C 4.828125 -0.09375 4.613281 0.03125 4.1875 0.03125 Z M 3.953125 0.03125 "/></g></g></g><g fill="#ffad00" fill-opacity="1"><g transform="translate(106.328785, 242.463118)"><g><path d="M 4.03125 0.09375 C 2.976562 0.09375 2.175781 -0.285156 1.625 -1.046875 C 1.070312 -1.804688 0.796875 -2.910156 0.796875 -4.359375 C 0.796875 -5.816406 1.070312 -6.9375 1.625 -7.71875 C 2.175781 -8.5 2.976562 -8.890625 4.03125 -8.890625 C 5.070312 -8.890625 5.863281 -8.5 6.40625 -7.71875 C 6.957031 -6.945312 7.234375 -5.828125 7.234375 -4.359375 C 7.234375 -2.898438 6.960938 -1.789062 6.421875 -1.03125 C 5.878906 -0.28125 5.082031 0.09375 4.03125 0.09375 Z M 4 -1.109375 C 4.59375 -1.109375 5.03125 -1.375 5.3125 -1.90625 C 5.601562 -2.4375 5.75 -3.265625 5.75 -4.390625 C 5.75 -5.503906 5.601562 -6.332031 5.3125 -6.875 C 5.03125 -7.414062 4.59375 -7.6875 4 -7.6875 C 3.40625 -7.6875 2.96875 -7.421875 2.6875 -6.890625 C 2.414062 -6.359375 2.28125 -5.523438 2.28125 -4.390625 C 2.28125 -3.265625 2.414062 -2.4375 2.6875 -1.90625 C 2.96875 -1.375 3.40625 -1.109375 4 -1.109375 Z M 4 -1.109375 "/></g></g></g><g fill="#ffad00" fill-opacity="1"><g transform="translate(114.34465, 242.463118)"><g><path d="M 3.328125 0.125 C 2.628906 0.125 2.085938 -0.0859375 1.703125 -0.515625 C 1.328125 -0.953125 1.140625 -1.550781 1.140625 -2.3125 L 1.140625 -8.4375 C 1.140625 -8.6875 1.351562 -8.8125 1.78125 -8.8125 L 1.953125 -8.8125 C 2.378906 -8.8125 2.59375 -8.6875 2.59375 -8.4375 L 2.59375 -2.53125 C 2.59375 -2.070312 2.691406 -1.71875 2.890625 -1.46875 C 3.085938 -1.226562 3.382812 -1.109375 3.78125 -1.109375 C 4.09375 -1.109375 4.382812 -1.210938 4.65625 -1.421875 C 4.9375 -1.640625 5.164062 -1.925781 5.34375 -2.28125 L 5.34375 -8.4375 C 5.34375 -8.6875 5.554688 -8.8125 5.984375 -8.8125 L 6.15625 -8.8125 C 6.582031 -8.8125 6.796875 -8.6875 6.796875 -8.4375 L 6.796875 -2.5 C 6.796875 -1.769531 6.820312 -1.238281 6.875 -0.90625 C 6.925781 -0.582031 6.953125 -0.40625 6.953125 -0.375 C 6.953125 -0.238281 6.832031 -0.140625 6.59375 -0.078125 C 6.363281 -0.0234375 6.160156 0 5.984375 0 C 5.828125 0 5.71875 -0.0703125 5.65625 -0.21875 C 5.59375 -0.363281 5.546875 -0.53125 5.515625 -0.71875 C 5.484375 -0.914062 5.460938 -1.054688 5.453125 -1.140625 C 5.191406 -0.753906 4.875 -0.445312 4.5 -0.21875 C 4.132812 0.0078125 3.742188 0.125 3.328125 0.125 Z M 3.328125 0.125 "/></g></g></g><g fill="#ffad00" fill-opacity="1"><g transform="translate(122.444537, 242.463118)"><g><path d="M 2.0625 0.03125 C 1.613281 0.03125 1.390625 -0.09375 1.390625 -0.34375 L 1.390625 -6.265625 C 1.390625 -7.003906 1.351562 -7.535156 1.28125 -7.859375 C 1.21875 -8.179688 1.1875 -8.359375 1.1875 -8.390625 C 1.1875 -8.523438 1.289062 -8.625 1.5 -8.6875 C 1.71875 -8.75 1.921875 -8.78125 2.109375 -8.78125 C 2.265625 -8.78125 2.378906 -8.691406 2.453125 -8.515625 C 2.523438 -8.347656 2.578125 -8.171875 2.609375 -7.984375 C 2.648438 -7.804688 2.675781 -7.691406 2.6875 -7.640625 C 3.226562 -8.472656 3.816406 -8.890625 4.453125 -8.890625 C 4.734375 -8.890625 4.945312 -8.832031 5.09375 -8.71875 C 5.25 -8.601562 5.328125 -8.441406 5.328125 -8.234375 C 5.328125 -8.046875 5.289062 -7.847656 5.21875 -7.640625 C 5.15625 -7.429688 5.082031 -7.328125 5 -7.328125 C 4.9375 -7.328125 4.832031 -7.359375 4.6875 -7.421875 C 4.539062 -7.484375 4.367188 -7.515625 4.171875 -7.515625 C 3.878906 -7.515625 3.597656 -7.394531 3.328125 -7.15625 C 3.066406 -6.914062 2.894531 -6.691406 2.8125 -6.484375 L 2.8125 -0.34375 C 2.8125 -0.09375 2.585938 0.03125 2.140625 0.03125 Z M 2.0625 0.03125 "/></g></g></g><g fill="#ffad00" fill-opacity="1"><g transform="translate(128.107737, 242.463118)"><g/></g></g><g fill="#ffad00" fill-opacity="1"><g transform="translate(130.40999, 242.463118)"><g><path d="M 3.40625 0.09375 C 2.914062 0.09375 2.476562 -0.0507812 2.09375 -0.34375 C 1.71875 -0.644531 1.53125 -1.175781 1.53125 -1.9375 L 1.53125 -7.578125 L 0.96875 -7.578125 C 0.863281 -7.578125 0.78125 -7.613281 0.71875 -7.6875 C 0.664062 -7.769531 0.640625 -7.90625 0.640625 -8.09375 L 0.640625 -8.28125 C 0.640625 -8.46875 0.664062 -8.597656 0.71875 -8.671875 C 0.78125 -8.753906 0.863281 -8.796875 0.96875 -8.796875 L 1.53125 -8.796875 L 1.734375 -10.5625 C 1.753906 -10.800781 1.929688 -10.921875 2.265625 -10.921875 L 2.4375 -10.921875 C 2.769531 -10.921875 2.9375 -10.800781 2.9375 -10.5625 L 2.9375 -8.796875 L 4.046875 -8.796875 C 4.171875 -8.796875 4.257812 -8.753906 4.3125 -8.671875 C 4.363281 -8.597656 4.390625 -8.46875 4.390625 -8.28125 L 4.390625 -8.09375 C 4.390625 -7.90625 4.363281 -7.769531 4.3125 -7.6875 C 4.257812 -7.613281 4.171875 -7.578125 4.046875 -7.578125 L 2.9375 -7.578125 L 2.9375 -2.171875 C 2.9375 -1.765625 2.992188 -1.484375 3.109375 -1.328125 C 3.222656 -1.179688 3.382812 -1.109375 3.59375 -1.109375 C 3.738281 -1.109375 3.863281 -1.117188 3.96875 -1.140625 C 4.070312 -1.171875 4.140625 -1.1875 4.171875 -1.1875 C 4.273438 -1.1875 4.359375 -1.085938 4.421875 -0.890625 C 4.484375 -0.691406 4.515625 -0.523438 4.515625 -0.390625 C 4.515625 -0.210938 4.398438 -0.0859375 4.171875 -0.015625 C 3.941406 0.0546875 3.6875 0.09375 3.40625 0.09375 Z M 3.40625 0.09375 "/></g></g></g><g fill="#ffad00" fill-opacity="1"><g transform="translate(135.41781, 242.463118)"><g><path d="M 2.109375 0.03125 C 1.648438 0.03125 1.421875 -0.09375 1.421875 -0.34375 L 1.421875 -8.453125 C 1.421875 -8.703125 1.648438 -8.828125 2.109375 -8.828125 L 2.171875 -8.828125 C 2.617188 -8.828125 2.84375 -8.703125 2.84375 -8.453125 L 2.84375 -0.34375 C 2.84375 -0.09375 2.617188 0.03125 2.171875 0.03125 Z M 2.125 -10 C 1.632812 -10 1.390625 -10.125 1.390625 -10.375 L 1.390625 -11.375 C 1.390625 -11.625 1.632812 -11.75 2.125 -11.75 C 2.625 -11.75 2.875 -11.625 2.875 -11.375 L 2.875 -10.375 C 2.875 -10.125 2.625 -10 2.125 -10 Z M 2.125 -10 "/></g></g></g><g fill="#ffad00" fill-opacity="1"><g transform="translate(139.686216, 242.463118)"><g><path d="M 4.296875 0.09375 C 3.097656 0.09375 2.207031 -0.257812 1.625 -0.96875 C 1.050781 -1.6875 0.765625 -2.84375 0.765625 -4.4375 C 0.765625 -6.082031 1.070312 -7.234375 1.6875 -7.890625 C 2.300781 -8.554688 3.15625 -8.890625 4.25 -8.890625 C 4.769531 -8.890625 5.25 -8.8125 5.6875 -8.65625 C 6.132812 -8.5 6.359375 -8.320312 6.359375 -8.125 C 6.359375 -7.988281 6.289062 -7.800781 6.15625 -7.5625 C 6.03125 -7.332031 5.921875 -7.21875 5.828125 -7.21875 C 5.816406 -7.21875 5.757812 -7.238281 5.65625 -7.28125 C 5.175781 -7.550781 4.71875 -7.6875 4.28125 -7.6875 C 3.625 -7.6875 3.128906 -7.4375 2.796875 -6.9375 C 2.460938 -6.4375 2.296875 -5.613281 2.296875 -4.46875 C 2.296875 -3.28125 2.453125 -2.421875 2.765625 -1.890625 C 3.085938 -1.367188 3.613281 -1.109375 4.34375 -1.109375 C 4.851562 -1.109375 5.316406 -1.234375 5.734375 -1.484375 C 5.773438 -1.503906 5.816406 -1.523438 5.859375 -1.546875 C 5.898438 -1.578125 5.929688 -1.597656 5.953125 -1.609375 C 6.066406 -1.609375 6.1875 -1.5 6.3125 -1.28125 C 6.4375 -1.0625 6.5 -0.882812 6.5 -0.75 C 6.5 -0.632812 6.378906 -0.507812 6.140625 -0.375 C 5.898438 -0.238281 5.601562 -0.125 5.25 -0.03125 C 4.90625 0.0507812 4.585938 0.09375 4.296875 0.09375 Z M 4.296875 0.09375 "/></g></g></g><g fill="#ffad00" fill-opacity="1"><g transform="translate(146.542554, 242.463118)"><g><path d="M 7.0625 -0.46875 C 7.132812 -0.34375 7.171875 -0.253906 7.171875 -0.203125 C 7.171875 -0.109375 7.117188 -0.046875 7.015625 -0.015625 C 6.921875 0.015625 6.753906 0.03125 6.515625 0.03125 L 6.1875 0.03125 C 6.007812 0.03125 5.882812 0.0195312 5.8125 0 C 5.75 -0.0195312 5.679688 -0.0820312 5.609375 -0.1875 L 3 -4.34375 L 2.890625 -4.34375 L 2.890625 -0.34375 C 2.890625 -0.09375 2.679688 0.03125 2.265625 0.03125 L 2.078125 0.03125 C 1.660156 0.03125 1.453125 -0.09375 1.453125 -0.34375 L 1.453125 -12.265625 C 1.453125 -12.515625 1.660156 -12.640625 2.078125 -12.640625 L 2.265625 -12.640625 C 2.679688 -12.640625 2.890625 -12.515625 2.890625 -12.265625 L 2.890625 -4.765625 L 2.96875 -4.765625 L 5.40625 -8.59375 C 5.5 -8.75 5.742188 -8.828125 6.140625 -8.828125 L 6.46875 -8.828125 C 6.644531 -8.828125 6.78125 -8.804688 6.875 -8.765625 C 6.976562 -8.722656 7.03125 -8.671875 7.03125 -8.609375 C 7.03125 -8.515625 6.984375 -8.394531 6.890625 -8.25 L 4.453125 -4.5625 Z M 7.0625 -0.46875 "/></g></g></g><g fill="#ffad00" fill-opacity="1"><g transform="translate(154.138306, 242.463118)"><g><path d="M 4.296875 0.09375 C 3.109375 0.09375 2.226562 -0.265625 1.65625 -0.984375 C 1.082031 -1.710938 0.796875 -2.832031 0.796875 -4.34375 C 0.796875 -5.832031 1.070312 -6.960938 1.625 -7.734375 C 2.1875 -8.503906 3.015625 -8.890625 4.109375 -8.890625 C 5.078125 -8.890625 5.804688 -8.515625 6.296875 -7.765625 C 6.796875 -7.023438 7.046875 -5.9375 7.046875 -4.5 C 7.046875 -4.40625 6.976562 -4.265625 6.84375 -4.078125 C 6.707031 -3.898438 6.585938 -3.8125 6.484375 -3.8125 L 2.296875 -3.8125 C 2.359375 -2.863281 2.539062 -2.175781 2.84375 -1.75 C 3.144531 -1.320312 3.625 -1.109375 4.28125 -1.109375 C 4.6875 -1.109375 5.023438 -1.164062 5.296875 -1.28125 C 5.566406 -1.394531 5.785156 -1.507812 5.953125 -1.625 C 6.117188 -1.75 6.21875 -1.8125 6.25 -1.8125 C 6.363281 -1.8125 6.488281 -1.695312 6.625 -1.46875 C 6.769531 -1.25 6.84375 -1.082031 6.84375 -0.96875 C 6.84375 -0.832031 6.726562 -0.675781 6.5 -0.5 C 6.269531 -0.332031 5.957031 -0.191406 5.5625 -0.078125 C 5.164062 0.0351562 4.742188 0.09375 4.296875 0.09375 Z M 5.546875 -5.03125 C 5.546875 -6.800781 5.046875 -7.6875 4.046875 -7.6875 C 2.972656 -7.6875 2.390625 -6.800781 2.296875 -5.03125 Z M 5.546875 -5.03125 "/></g></g></g><g fill="#ffad00" fill-opacity="1"><g transform="translate(161.76767, 242.463118)"><g><path d="M 3.40625 0.09375 C 2.914062 0.09375 2.476562 -0.0507812 2.09375 -0.34375 C 1.71875 -0.644531 1.53125 -1.175781 1.53125 -1.9375 L 1.53125 -7.578125 L 0.96875 -7.578125 C 0.863281 -7.578125 0.78125 -7.613281 0.71875 -7.6875 C 0.664062 -7.769531 0.640625 -7.90625 0.640625 -8.09375 L 0.640625 -8.28125 C 0.640625 -8.46875 0.664062 -8.597656 0.71875 -8.671875 C 0.78125 -8.753906 0.863281 -8.796875 0.96875 -8.796875 L 1.53125 -8.796875 L 1.734375 -10.5625 C 1.753906 -10.800781 1.929688 -10.921875 2.265625 -10.921875 L 2.4375 -10.921875 C 2.769531 -10.921875 2.9375 -10.800781 2.9375 -10.5625 L 2.9375 -8.796875 L 4.046875 -8.796875 C 4.171875 -8.796875 4.257812 -8.753906 4.3125 -8.671875 C 4.363281 -8.597656 4.390625 -8.46875 4.390625 -8.28125 L 4.390625 -8.09375 C 4.390625 -7.90625 4.363281 -7.769531 4.3125 -7.6875 C 4.257812 -7.613281 4.171875 -7.578125 4.046875 -7.578125 L 2.9375 -7.578125 L 2.9375 -2.171875 C 2.9375 -1.765625 2.992188 -1.484375 3.109375 -1.328125 C 3.222656 -1.179688 3.382812 -1.109375 3.59375 -1.109375 C 3.738281 -1.109375 3.863281 -1.117188 3.96875 -1.140625 C 4.070312 -1.171875 4.140625 -1.1875 4.171875 -1.1875 C 4.273438 -1.1875 4.359375 -1.085938 4.421875 -0.890625 C 4.484375 -0.691406 4.515625 -0.523438 4.515625 -0.390625 C 4.515625 -0.210938 4.398438 -0.0859375 4.171875 -0.015625 C 3.941406 0.0546875 3.6875 0.09375 3.40625 0.09375 Z M 3.40625 0.09375 "/></g></g></g><g fill="#ffad00" fill-opacity="1"><g transform="translate(166.775489, 242.463118)"><g/></g></g><g fill="#ffad00" fill-opacity="1"><g transform="translate(169.077743, 242.463118)"><g><path d="M 3.40625 0.09375 C 2.914062 0.09375 2.476562 -0.0507812 2.09375 -0.34375 C 1.71875 -0.644531 1.53125 -1.175781 1.53125 -1.9375 L 1.53125 -7.578125 L 0.96875 -7.578125 C 0.863281 -7.578125 0.78125 -7.613281 0.71875 -7.6875 C 0.664062 -7.769531 0.640625 -7.90625 0.640625 -8.09375 L 0.640625 -8.28125 C 0.640625 -8.46875 0.664062 -8.597656 0.71875 -8.671875 C 0.78125 -8.753906 0.863281 -8.796875 0.96875 -8.796875 L 1.53125 -8.796875 L 1.734375 -10.5625 C 1.753906 -10.800781 1.929688 -10.921875 2.265625 -10.921875 L 2.4375 -10.921875 C 2.769531 -10.921875 2.9375 -10.800781 2.9375 -10.5625 L 2.9375 -8.796875 L 4.046875 -8.796875 C 4.171875 -8.796875 4.257812 -8.753906 4.3125 -8.671875 C 4.363281 -8.597656 4.390625 -8.46875 4.390625 -8.28125 L 4.390625 -8.09375 C 4.390625 -7.90625 4.363281 -7.769531 4.3125 -7.6875 C 4.257812 -7.613281 4.171875 -7.578125 4.046875 -7.578125 L 2.9375 -7.578125 L 2.9375 -2.171875 C 2.9375 -1.765625 2.992188 -1.484375 3.109375 -1.328125 C 3.222656 -1.179688 3.382812 -1.109375 3.59375 -1.109375 C 3.738281 -1.109375 3.863281 -1.117188 3.96875 -1.140625 C 4.070312 -1.171875 4.140625 -1.1875 4.171875 -1.1875 C 4.273438 -1.1875 4.359375 -1.085938 4.421875 -0.890625 C 4.484375 -0.691406 4.515625 -0.523438 4.515625 -0.390625 C 4.515625 -0.210938 4.398438 -0.0859375 4.171875 -0.015625 C 3.941406 0.0546875 3.6875 0.09375 3.40625 0.09375 Z M 3.40625 0.09375 "/></g></g></g><g fill="#ffad00" fill-opacity="1"><g transform="translate(174.085563, 242.463118)"><g><path d="M 4.03125 0.09375 C 2.976562 0.09375 2.175781 -0.285156 1.625 -1.046875 C 1.070312 -1.804688 0.796875 -2.910156 0.796875 -4.359375 C 0.796875 -5.816406 1.070312 -6.9375 1.625 -7.71875 C 2.175781 -8.5 2.976562 -8.890625 4.03125 -8.890625 C 5.070312 -8.890625 5.863281 -8.5 6.40625 -7.71875 C 6.957031 -6.945312 7.234375 -5.828125 7.234375 -4.359375 C 7.234375 -2.898438 6.960938 -1.789062 6.421875 -1.03125 C 5.878906 -0.28125 5.082031 0.09375 4.03125 0.09375 Z M 4 -1.109375 C 4.59375 -1.109375 5.03125 -1.375 5.3125 -1.90625 C 5.601562 -2.4375 5.75 -3.265625 5.75 -4.390625 C 5.75 -5.503906 5.601562 -6.332031 5.3125 -6.875 C 5.03125 -7.414062 4.59375 -7.6875 4 -7.6875 C 3.40625 -7.6875 2.96875 -7.421875 2.6875 -6.890625 C 2.414062 -6.359375 2.28125 -5.523438 2.28125 -4.390625 C 2.28125 -3.265625 2.414062 -2.4375 2.6875 -1.90625 C 2.96875 -1.375 3.40625 -1.109375 4 -1.109375 Z M 4 -1.109375 "/></g></g></g><g fill="#ffad00" fill-opacity="1"><g transform="translate(182.101428, 242.463118)"><g/></g></g><g fill="#ffad00" fill-opacity="1"><g transform="translate(184.403681, 242.463118)"><g><path d="M 1.78125 0 C 1.625 0 1.507812 -0.0351562 1.4375 -0.109375 C 1.363281 -0.191406 1.328125 -0.320312 1.328125 -0.5 L 1.328125 -11.265625 C 1.328125 -11.441406 1.363281 -11.566406 1.4375 -11.640625 C 1.507812 -11.722656 1.625 -11.765625 1.78125 -11.765625 L 6.625 -11.765625 C 6.832031 -11.765625 6.9375 -11.597656 6.9375 -11.265625 L 6.9375 -11 C 6.9375 -10.65625 6.832031 -10.484375 6.625 -10.484375 L 2.84375 -10.484375 L 2.84375 -6.65625 L 6.234375 -6.65625 C 6.453125 -6.65625 6.5625 -6.488281 6.5625 -6.15625 L 6.5625 -5.890625 C 6.5625 -5.546875 6.453125 -5.375 6.234375 -5.375 L 2.84375 -5.375 L 2.84375 -1.28125 L 6.625 -1.28125 C 6.738281 -1.28125 6.816406 -1.238281 6.859375 -1.15625 C 6.910156 -1.082031 6.9375 -0.953125 6.9375 -0.765625 L 6.9375 -0.5 C 6.9375 -0.320312 6.910156 -0.191406 6.859375 -0.109375 C 6.816406 -0.0351562 6.738281 0 6.625 0 Z M 1.78125 0 "/></g></g></g><g fill="#ffad00" fill-opacity="1"><g transform="translate(192.083456, 242.463118)"><g><path d="M 1.9375 0.03125 C 1.519531 0.03125 1.3125 -0.09375 1.3125 -0.34375 L 1.3125 -6.265625 C 1.3125 -6.992188 1.28125 -7.519531 1.21875 -7.84375 C 1.164062 -8.175781 1.140625 -8.359375 1.140625 -8.390625 C 1.140625 -8.523438 1.257812 -8.625 1.5 -8.6875 C 1.738281 -8.75 1.945312 -8.78125 2.125 -8.78125 C 2.28125 -8.78125 2.382812 -8.707031 2.4375 -8.5625 C 2.5 -8.414062 2.546875 -8.242188 2.578125 -8.046875 C 2.617188 -7.859375 2.644531 -7.722656 2.65625 -7.640625 C 2.914062 -8.023438 3.226562 -8.328125 3.59375 -8.546875 C 3.96875 -8.773438 4.363281 -8.890625 4.78125 -8.890625 C 5.46875 -8.890625 6 -8.65625 6.375 -8.1875 C 6.757812 -7.726562 6.953125 -7.085938 6.953125 -6.265625 L 6.953125 -0.34375 C 6.953125 -0.09375 6.742188 0.03125 6.328125 0.03125 L 6.15625 0.03125 C 5.71875 0.03125 5.5 -0.09375 5.5 -0.34375 L 5.5 -6.140625 C 5.5 -6.628906 5.394531 -7.003906 5.1875 -7.265625 C 4.988281 -7.535156 4.691406 -7.671875 4.296875 -7.671875 C 3.992188 -7.671875 3.703125 -7.5625 3.421875 -7.34375 C 3.148438 -7.125 2.925781 -6.835938 2.75 -6.484375 L 2.75 -0.34375 C 2.75 -0.09375 2.539062 0.03125 2.125 0.03125 Z M 1.9375 0.03125 "/></g></g></g><g fill="#ffad00" fill-opacity="1"><g transform="translate(200.183343, 242.463118)"><g><path d="M 3.40625 0.09375 C 2.914062 0.09375 2.476562 -0.0507812 2.09375 -0.34375 C 1.71875 -0.644531 1.53125 -1.175781 1.53125 -1.9375 L 1.53125 -7.578125 L 0.96875 -7.578125 C 0.863281 -7.578125 0.78125 -7.613281 0.71875 -7.6875 C 0.664062 -7.769531 0.640625 -7.90625 0.640625 -8.09375 L 0.640625 -8.28125 C 0.640625 -8.46875 0.664062 -8.597656 0.71875 -8.671875 C 0.78125 -8.753906 0.863281 -8.796875 0.96875 -8.796875 L 1.53125 -8.796875 L 1.734375 -10.5625 C 1.753906 -10.800781 1.929688 -10.921875 2.265625 -10.921875 L 2.4375 -10.921875 C 2.769531 -10.921875 2.9375 -10.800781 2.9375 -10.5625 L 2.9375 -8.796875 L 4.046875 -8.796875 C 4.171875 -8.796875 4.257812 -8.753906 4.3125 -8.671875 C 4.363281 -8.597656 4.390625 -8.46875 4.390625 -8.28125 L 4.390625 -8.09375 C 4.390625 -7.90625 4.363281 -7.769531 4.3125 -7.6875 C 4.257812 -7.613281 4.171875 -7.578125 4.046875 -7.578125 L 2.9375 -7.578125 L 2.9375 -2.171875 C 2.9375 -1.765625 2.992188 -1.484375 3.109375 -1.328125 C 3.222656 -1.179688 3.382812 -1.109375 3.59375 -1.109375 C 3.738281 -1.109375 3.863281 -1.117188 3.96875 -1.140625 C 4.070312 -1.171875 4.140625 -1.1875 4.171875 -1.1875 C 4.273438 -1.1875 4.359375 -1.085938 4.421875 -0.890625 C 4.484375 -0.691406 4.515625 -0.523438 4.515625 -0.390625 C 4.515625 -0.210938 4.398438 -0.0859375 4.171875 -0.015625 C 3.941406 0.0546875 3.6875 0.09375 3.40625 0.09375 Z M 3.40625 0.09375 "/></g></g></g><g fill="#ffad00" fill-opacity="1"><g transform="translate(205.191163, 242.463118)"><g><path d="M 4.296875 0.09375 C 3.109375 0.09375 2.226562 -0.265625 1.65625 -0.984375 C 1.082031 -1.710938 0.796875 -2.832031 0.796875 -4.34375 C 0.796875 -5.832031 1.070312 -6.960938 1.625 -7.734375 C 2.1875 -8.503906 3.015625 -8.890625 4.109375 -8.890625 C 5.078125 -8.890625 5.804688 -8.515625 6.296875 -7.765625 C 6.796875 -7.023438 7.046875 -5.9375 7.046875 -4.5 C 7.046875 -4.40625 6.976562 -4.265625 6.84375 -4.078125 C 6.707031 -3.898438 6.585938 -3.8125 6.484375 -3.8125 L 2.296875 -3.8125 C 2.359375 -2.863281 2.539062 -2.175781 2.84375 -1.75 C 3.144531 -1.320312 3.625 -1.109375 4.28125 -1.109375 C 4.6875 -1.109375 5.023438 -1.164062 5.296875 -1.28125 C 5.566406 -1.394531 5.785156 -1.507812 5.953125 -1.625 C 6.117188 -1.75 6.21875 -1.8125 6.25 -1.8125 C 6.363281 -1.8125 6.488281 -1.695312 6.625 -1.46875 C 6.769531 -1.25 6.84375 -1.082031 6.84375 -0.96875 C 6.84375 -0.832031 6.726562 -0.675781 6.5 -0.5 C 6.269531 -0.332031 5.957031 -0.191406 5.5625 -0.078125 C 5.164062 0.0351562 4.742188 0.09375 4.296875 0.09375 Z M 5.546875 -5.03125 C 5.546875 -6.800781 5.046875 -7.6875 4.046875 -7.6875 C 2.972656 -7.6875 2.390625 -6.800781 2.296875 -5.03125 Z M 5.546875 -5.03125 "/></g></g></g><g fill="#ffad00" fill-opacity="1"><g transform="translate(212.820527, 242.463118)"><g><path d="M 2.0625 0.03125 C 1.613281 0.03125 1.390625 -0.09375 1.390625 -0.34375 L 1.390625 -6.265625 C 1.390625 -7.003906 1.351562 -7.535156 1.28125 -7.859375 C 1.21875 -8.179688 1.1875 -8.359375 1.1875 -8.390625 C 1.1875 -8.523438 1.289062 -8.625 1.5 -8.6875 C 1.71875 -8.75 1.921875 -8.78125 2.109375 -8.78125 C 2.265625 -8.78125 2.378906 -8.691406 2.453125 -8.515625 C 2.523438 -8.347656 2.578125 -8.171875 2.609375 -7.984375 C 2.648438 -7.804688 2.675781 -7.691406 2.6875 -7.640625 C 3.226562 -8.472656 3.816406 -8.890625 4.453125 -8.890625 C 4.734375 -8.890625 4.945312 -8.832031 5.09375 -8.71875 C 5.25 -8.601562 5.328125 -8.441406 5.328125 -8.234375 C 5.328125 -8.046875 5.289062 -7.847656 5.21875 -7.640625 C 5.15625 -7.429688 5.082031 -7.328125 5 -7.328125 C 4.9375 -7.328125 4.832031 -7.359375 4.6875 -7.421875 C 4.539062 -7.484375 4.367188 -7.515625 4.171875 -7.515625 C 3.878906 -7.515625 3.597656 -7.394531 3.328125 -7.15625 C 3.066406 -6.914062 2.894531 -6.691406 2.8125 -6.484375 L 2.8125 -0.34375 C 2.8125 -0.09375 2.585938 0.03125 2.140625 0.03125 Z M 2.0625 0.03125 "/></g></g></g><g fill="#ffad00" fill-opacity="1"><g transform="translate(218.483727, 242.463118)"><g><path d="M 3.40625 0.09375 C 2.914062 0.09375 2.476562 -0.0507812 2.09375 -0.34375 C 1.71875 -0.644531 1.53125 -1.175781 1.53125 -1.9375 L 1.53125 -7.578125 L 0.96875 -7.578125 C 0.863281 -7.578125 0.78125 -7.613281 0.71875 -7.6875 C 0.664062 -7.769531 0.640625 -7.90625 0.640625 -8.09375 L 0.640625 -8.28125 C 0.640625 -8.46875 0.664062 -8.597656 0.71875 -8.671875 C 0.78125 -8.753906 0.863281 -8.796875 0.96875 -8.796875 L 1.53125 -8.796875 L 1.734375 -10.5625 C 1.753906 -10.800781 1.929688 -10.921875 2.265625 -10.921875 L 2.4375 -10.921875 C 2.769531 -10.921875 2.9375 -10.800781 2.9375 -10.5625 L 2.9375 -8.796875 L 4.046875 -8.796875 C 4.171875 -8.796875 4.257812 -8.753906 4.3125 -8.671875 C 4.363281 -8.597656 4.390625 -8.46875 4.390625 -8.28125 L 4.390625 -8.09375 C 4.390625 -7.90625 4.363281 -7.769531 4.3125 -7.6875 C 4.257812 -7.613281 4.171875 -7.578125 4.046875 -7.578125 L 2.9375 -7.578125 L 2.9375 -2.171875 C 2.9375 -1.765625 2.992188 -1.484375 3.109375 -1.328125 C 3.222656 -1.179688 3.382812 -1.109375 3.59375 -1.109375 C 3.738281 -1.109375 3.863281 -1.117188 3.96875 -1.140625 C 4.070312 -1.171875 4.140625 -1.1875 4.171875 -1.1875 C 4.273438 -1.1875 4.359375 -1.085938 4.421875 -0.890625 C 4.484375 -0.691406 4.515625 -0.523438 4.515625 -0.390625 C 4.515625 -0.210938 4.398438 -0.0859375 4.171875 -0.015625 C 3.941406 0.0546875 3.6875 0.09375 3.40625 0.09375 Z M 3.40625 0.09375 "/></g></g></g><g fill="#ffad00" fill-opacity="1"><g transform="translate(223.491546, 242.463118)"><g><path d="M 3.3125 0.09375 C 2.5625 0.09375 1.960938 -0.128906 1.515625 -0.578125 C 1.078125 -1.035156 0.859375 -1.675781 0.859375 -2.5 C 0.859375 -3.34375 1.078125 -3.988281 1.515625 -4.4375 C 1.953125 -4.882812 2.492188 -5.179688 3.140625 -5.328125 C 3.796875 -5.484375 4.539062 -5.566406 5.375 -5.578125 L 5.375 -6.375 C 5.375 -6.75 5.253906 -7.0625 5.015625 -7.3125 C 4.785156 -7.5625 4.421875 -7.6875 3.921875 -7.6875 C 3.523438 -7.6875 3.175781 -7.632812 2.875 -7.53125 C 2.582031 -7.4375 2.328125 -7.335938 2.109375 -7.234375 C 1.898438 -7.128906 1.78125 -7.078125 1.75 -7.078125 C 1.632812 -7.078125 1.503906 -7.1875 1.359375 -7.40625 C 1.222656 -7.625 1.15625 -7.789062 1.15625 -7.90625 C 1.15625 -8.050781 1.285156 -8.203125 1.546875 -8.359375 C 1.816406 -8.515625 2.164062 -8.640625 2.59375 -8.734375 C 3.03125 -8.835938 3.476562 -8.890625 3.9375 -8.890625 C 4.832031 -8.890625 5.53125 -8.664062 6.03125 -8.21875 C 6.539062 -7.769531 6.796875 -7.148438 6.796875 -6.359375 L 6.796875 -2.484375 C 6.796875 -1.742188 6.828125 -1.210938 6.890625 -0.890625 C 6.960938 -0.578125 7 -0.40625 7 -0.375 C 7 -0.238281 6.890625 -0.140625 6.671875 -0.078125 C 6.460938 -0.015625 6.269531 0.015625 6.09375 0.015625 C 5.914062 0.015625 5.785156 -0.0664062 5.703125 -0.234375 C 5.628906 -0.410156 5.5625 -0.65625 5.5 -0.96875 C 4.90625 -0.257812 4.175781 0.09375 3.3125 0.09375 Z M 3.59375 -1.234375 C 4.320312 -1.234375 4.914062 -1.550781 5.375 -2.1875 L 5.375 -4.359375 C 4.75 -4.347656 4.234375 -4.300781 3.828125 -4.21875 C 3.421875 -4.144531 3.070312 -3.972656 2.78125 -3.703125 C 2.488281 -3.441406 2.34375 -3.046875 2.34375 -2.515625 C 2.34375 -1.660156 2.757812 -1.234375 3.59375 -1.234375 Z M 3.59375 -1.234375 "/></g></g></g><g fill="#ffad00" fill-opacity="1"><g transform="translate(231.574634, 242.463118)"><g><path d="M 2.109375 0.03125 C 1.648438 0.03125 1.421875 -0.09375 1.421875 -0.34375 L 1.421875 -8.453125 C 1.421875 -8.703125 1.648438 -8.828125 2.109375 -8.828125 L 2.171875 -8.828125 C 2.617188 -8.828125 2.84375 -8.703125 2.84375 -8.453125 L 2.84375 -0.34375 C 2.84375 -0.09375 2.617188 0.03125 2.171875 0.03125 Z M 2.125 -10 C 1.632812 -10 1.390625 -10.125 1.390625 -10.375 L 1.390625 -11.375 C 1.390625 -11.625 1.632812 -11.75 2.125 -11.75 C 2.625 -11.75 2.875 -11.625 2.875 -11.375 L 2.875 -10.375 C 2.875 -10.125 2.625 -10 2.125 -10 Z M 2.125 -10 "/></g></g></g><g fill="#ffad00" fill-opacity="1"><g transform="translate(235.843039, 242.463118)"><g><path d="M 1.9375 0.03125 C 1.519531 0.03125 1.3125 -0.09375 1.3125 -0.34375 L 1.3125 -6.265625 C 1.3125 -6.992188 1.28125 -7.519531 1.21875 -7.84375 C 1.164062 -8.175781 1.140625 -8.359375 1.140625 -8.390625 C 1.140625 -8.523438 1.257812 -8.625 1.5 -8.6875 C 1.738281 -8.75 1.945312 -8.78125 2.125 -8.78125 C 2.28125 -8.78125 2.382812 -8.707031 2.4375 -8.5625 C 2.5 -8.414062 2.546875 -8.242188 2.578125 -8.046875 C 2.617188 -7.859375 2.644531 -7.722656 2.65625 -7.640625 C 2.914062 -8.023438 3.226562 -8.328125 3.59375 -8.546875 C 3.96875 -8.773438 4.363281 -8.890625 4.78125 -8.890625 C 5.46875 -8.890625 6 -8.65625 6.375 -8.1875 C 6.757812 -7.726562 6.953125 -7.085938 6.953125 -6.265625 L 6.953125 -0.34375 C 6.953125 -0.09375 6.742188 0.03125 6.328125 0.03125 L 6.15625 0.03125 C 5.71875 0.03125 5.5 -0.09375 5.5 -0.34375 L 5.5 -6.140625 C 5.5 -6.628906 5.394531 -7.003906 5.1875 -7.265625 C 4.988281 -7.535156 4.691406 -7.671875 4.296875 -7.671875 C 3.992188 -7.671875 3.703125 -7.5625 3.421875 -7.34375 C 3.148438 -7.125 2.925781 -6.835938 2.75 -6.484375 L 2.75 -0.34375 C 2.75 -0.09375 2.539062 0.03125 2.125 0.03125 Z M 1.9375 0.03125 "/></g></g></g><g fill="#ffad00" fill-opacity="1"><g transform="translate(243.942927, 242.463118)"><g><path d="M 8.828125 -8.890625 C 9.441406 -8.890625 9.953125 -8.660156 10.359375 -8.203125 C 10.765625 -7.753906 10.96875 -7.078125 10.96875 -6.171875 L 10.96875 -0.34375 C 10.96875 -0.09375 10.753906 0.03125 10.328125 0.03125 L 10.15625 0.03125 C 9.726562 0.03125 9.515625 -0.09375 9.515625 -0.34375 L 9.515625 -6.03125 C 9.515625 -6.5625 9.414062 -6.96875 9.21875 -7.25 C 9.03125 -7.53125 8.75 -7.671875 8.375 -7.671875 C 8.019531 -7.671875 7.707031 -7.539062 7.4375 -7.28125 C 7.164062 -7.03125 6.972656 -6.75 6.859375 -6.4375 L 6.859375 -0.34375 C 6.859375 -0.09375 6.648438 0.03125 6.234375 0.03125 L 6.046875 0.03125 C 5.617188 0.03125 5.40625 -0.09375 5.40625 -0.34375 L 5.40625 -6.03125 C 5.40625 -6.5625 5.3125 -6.96875 5.125 -7.25 C 4.9375 -7.53125 4.644531 -7.671875 4.25 -7.671875 C 3.882812 -7.671875 3.5625 -7.535156 3.28125 -7.265625 C 3 -6.992188 2.820312 -6.734375 2.75 -6.484375 L 2.75 -0.34375 C 2.75 -0.09375 2.539062 0.03125 2.125 0.03125 L 1.9375 0.03125 C 1.519531 0.03125 1.3125 -0.09375 1.3125 -0.34375 L 1.3125 -6.265625 C 1.3125 -6.992188 1.28125 -7.519531 1.21875 -7.84375 C 1.164062 -8.175781 1.140625 -8.359375 1.140625 -8.390625 C 1.140625 -8.523438 1.257812 -8.625 1.5 -8.6875 C 1.738281 -8.75 1.945312 -8.78125 2.125 -8.78125 C 2.28125 -8.78125 2.382812 -8.707031 2.4375 -8.5625 C 2.5 -8.414062 2.546875 -8.242188 2.578125 -8.046875 C 2.617188 -7.859375 2.644531 -7.722656 2.65625 -7.640625 C 2.882812 -8.015625 3.175781 -8.316406 3.53125 -8.546875 C 3.894531 -8.773438 4.289062 -8.890625 4.71875 -8.890625 C 5.144531 -8.890625 5.53125 -8.785156 5.875 -8.578125 C 6.21875 -8.367188 6.472656 -8.039062 6.640625 -7.59375 C 6.910156 -7.988281 7.234375 -8.300781 7.609375 -8.53125 C 7.992188 -8.769531 8.398438 -8.890625 8.828125 -8.890625 Z M 8.828125 -8.890625 "/></g></g></g><g fill="#ffad00" fill-opacity="1"><g transform="translate(256.042352, 242.463118)"><g><path d="M 4.296875 0.09375 C 3.109375 0.09375 2.226562 -0.265625 1.65625 -0.984375 C 1.082031 -1.710938 0.796875 -2.832031 0.796875 -4.34375 C 0.796875 -5.832031 1.070312 -6.960938 1.625 -7.734375 C 2.1875 -8.503906 3.015625 -8.890625 4.109375 -8.890625 C 5.078125 -8.890625 5.804688 -8.515625 6.296875 -7.765625 C 6.796875 -7.023438 7.046875 -5.9375 7.046875 -4.5 C 7.046875 -4.40625 6.976562 -4.265625 6.84375 -4.078125 C 6.707031 -3.898438 6.585938 -3.8125 6.484375 -3.8125 L 2.296875 -3.8125 C 2.359375 -2.863281 2.539062 -2.175781 2.84375 -1.75 C 3.144531 -1.320312 3.625 -1.109375 4.28125 -1.109375 C 4.6875 -1.109375 5.023438 -1.164062 5.296875 -1.28125 C 5.566406 -1.394531 5.785156 -1.507812 5.953125 -1.625 C 6.117188 -1.75 6.21875 -1.8125 6.25 -1.8125 C 6.363281 -1.8125 6.488281 -1.695312 6.625 -1.46875 C 6.769531 -1.25 6.84375 -1.082031 6.84375 -0.96875 C 6.84375 -0.832031 6.726562 -0.675781 6.5 -0.5 C 6.269531 -0.332031 5.957031 -0.191406 5.5625 -0.078125 C 5.164062 0.0351562 4.742188 0.09375 4.296875 0.09375 Z M 5.546875 -5.03125 C 5.546875 -6.800781 5.046875 -7.6875 4.046875 -7.6875 C 2.972656 -7.6875 2.390625 -6.800781 2.296875 -5.03125 Z M 5.546875 -5.03125 "/></g></g></g><g fill="#ffad00" fill-opacity="1"><g transform="translate(263.671716, 242.463118)"><g><path d="M 1.9375 0.03125 C 1.519531 0.03125 1.3125 -0.09375 1.3125 -0.34375 L 1.3125 -6.265625 C 1.3125 -6.992188 1.28125 -7.519531 1.21875 -7.84375 C 1.164062 -8.175781 1.140625 -8.359375 1.140625 -8.390625 C 1.140625 -8.523438 1.257812 -8.625 1.5 -8.6875 C 1.738281 -8.75 1.945312 -8.78125 2.125 -8.78125 C 2.28125 -8.78125 2.382812 -8.707031 2.4375 -8.5625 C 2.5 -8.414062 2.546875 -8.242188 2.578125 -8.046875 C 2.617188 -7.859375 2.644531 -7.722656 2.65625 -7.640625 C 2.914062 -8.023438 3.226562 -8.328125 3.59375 -8.546875 C 3.96875 -8.773438 4.363281 -8.890625 4.78125 -8.890625 C 5.46875 -8.890625 6 -8.65625 6.375 -8.1875 C 6.757812 -7.726562 6.953125 -7.085938 6.953125 -6.265625 L 6.953125 -0.34375 C 6.953125 -0.09375 6.742188 0.03125 6.328125 0.03125 L 6.15625 0.03125 C 5.71875 0.03125 5.5 -0.09375 5.5 -0.34375 L 5.5 -6.140625 C 5.5 -6.628906 5.394531 -7.003906 5.1875 -7.265625 C 4.988281 -7.535156 4.691406 -7.671875 4.296875 -7.671875 C 3.992188 -7.671875 3.703125 -7.5625 3.421875 -7.34375 C 3.148438 -7.125 2.925781 -6.835938 2.75 -6.484375 L 2.75 -0.34375 C 2.75 -0.09375 2.539062 0.03125 2.125 0.03125 Z M 1.9375 0.03125 "/></g></g></g><g fill="#ffad00" fill-opacity="1"><g transform="translate(271.771603, 242.463118)"><g><path d="M 3.40625 0.09375 C 2.914062 0.09375 2.476562 -0.0507812 2.09375 -0.34375 C 1.71875 -0.644531 1.53125 -1.175781 1.53125 -1.9375 L 1.53125 -7.578125 L 0.96875 -7.578125 C 0.863281 -7.578125 0.78125 -7.613281 0.71875 -7.6875 C 0.664062 -7.769531 0.640625 -7.90625 0.640625 -8.09375 L 0.640625 -8.28125 C 0.640625 -8.46875 0.664062 -8.597656 0.71875 -8.671875 C 0.78125 -8.753906 0.863281 -8.796875 0.96875 -8.796875 L 1.53125 -8.796875 L 1.734375 -10.5625 C 1.753906 -10.800781 1.929688 -10.921875 2.265625 -10.921875 L 2.4375 -10.921875 C 2.769531 -10.921875 2.9375 -10.800781 2.9375 -10.5625 L 2.9375 -8.796875 L 4.046875 -8.796875 C 4.171875 -8.796875 4.257812 -8.753906 4.3125 -8.671875 C 4.363281 -8.597656 4.390625 -8.46875 4.390625 -8.28125 L 4.390625 -8.09375 C 4.390625 -7.90625 4.363281 -7.769531 4.3125 -7.6875 C 4.257812 -7.613281 4.171875 -7.578125 4.046875 -7.578125 L 2.9375 -7.578125 L 2.9375 -2.171875 C 2.9375 -1.765625 2.992188 -1.484375 3.109375 -1.328125 C 3.222656 -1.179688 3.382812 -1.109375 3.59375 -1.109375 C 3.738281 -1.109375 3.863281 -1.117188 3.96875 -1.140625 C 4.070312 -1.171875 4.140625 -1.1875 4.171875 -1.1875 C 4.273438 -1.1875 4.359375 -1.085938 4.421875 -0.890625 C 4.484375 -0.691406 4.515625 -0.523438 4.515625 -0.390625 C 4.515625 -0.210938 4.398438 -0.0859375 4.171875 -0.015625 C 3.941406 0.0546875 3.6875 0.09375 3.40625 0.09375 Z M 3.40625 0.09375 "/></g></g></g></svg>